<?xml version="1.0" encoding="UTF-8" standalone="no"?>
<svg
   version="1.1"
   width="1254"
   height="1254"
   id="svg61"
   sodipodi:docname="Digit.svg"
   inkscape:version="1.3.2 (091e20e, 2023-11-25)"
   inkscape:export-filename="digit_256.png"
   inkscape:export-xdpi="19.598085"
   inkscape:export-ydpi="19.598085"
   xmlns:inkscape="http://www.inkscape.org/namespaces/inkscape"
   xmlns:sodipodi="http://sodipodi.sourceforge.net/DTD/sodipodi-0.dtd"
   xmlns="http://www.w3.org/2000/svg"
   xmlns:svg="http://www.w3.org/2000/svg">
  <defs
     id="defs61" />
  <sodipodi:namedview
     id="namedview61"
     pagecolor="#ffffff"
     bordercolor="#000000"
     borderopacity="0.25"
     inkscape:showpageshadow="2"
     inkscape:pageopacity="0.0"
     inkscape:pagecheckerboard="0"
     inkscape:deskcolor="#d1d1d1"
     inkscape:zoom="0.37639553"
     inkscape:cx="274.9767"
     inkscape:cy="989.65044"
     inkscape:window-width="1920"
     inkscape:window-height="1022"
     inkscape:window-x="0"
     inkscape:window-y="30"
     inkscape:window-maximized="1"
     inkscape:current-layer="svg61" />
  <rect
     style="fill:#ffffff;fill-opacity:1;stroke:none;stroke-width:25.3327;stroke-linejoin:round;stroke-dasharray:none;stroke-opacity:1"
     id="rect1"
     width="1254"
     height="1254.0001"
     x="0"
     y="0"
     rx="204.0403"
     ry="204.0403" />
  <path
     d="m 192.24195,412.59213 c 2.92205,-0.0287 5.8441,-0.0574 8.8547,-0.087 4.73065,0.11253 4.73065,0.11253 9.5569,0.22734 3.36075,-9.7e-4 6.72152,-0.006 10.18414,-0.0104 9.17313,-0.006 18.34052,0.11613 27.51231,0.26238 9.60046,0.13079 19.20113,0.1426 28.80234,0.16744 18.16166,0.0649 36.32068,0.2358 54.48115,0.44549 20.68309,0.23357 41.36632,0.34805 62.05041,0.45269 42.53043,0.21787 85.05827,0.58466 127.58659,1.05008 0.0209,1.78356 0.0312,3.56715 0.0469,5.40474 0.16847,18.61887 0.38748,37.23661 0.63813,55.85453 0.0904,6.94197 0.15978,13.8832 0.21901,20.8256 0.0886,9.99756 0.22439,19.99345 0.37013,29.99031 0.0243,4.63092 0.0243,4.63092 0.0504,9.3554 0.33036,18.7011 1.00635,35.98978 13.6839,50.86973 1.55674,1.18684 3.1135,2.37374 4.71732,3.59658 1.56352,1.23397 3.12687,2.4679 4.73764,3.73924 8.00243,5.57273 13.29308,5.93087 22.96655,6.08836 2.81945,0.052 5.63891,0.10386 8.54398,0.1577 3.05377,0.0435 6.10785,0.0873 9.25436,0.132 4.67842,0.0816 4.67842,0.0816 9.45096,0.16414 9.99305,0.1709 19.98593,0.32448 29.97898,0.47764 6.76213,0.11253 13.52391,0.22639 20.2857,0.34133 16.60391,0.27971 33.20798,0.54513 49.81239,0.79981 0.18254,68.4257 0.32063,136.85138 0.40538,205.27728 0.0417,31.7708 0.0956,63.54145 0.18446,95.31217 0.0781,27.68892 0.12852,55.37774 0.14589,83.0667 0,14.66329 0.0347,29.32639 0.0904,43.98949 0.0539,13.8 0.0694,27.5994 0.0573,41.3996 0,5.066 0.0209,10.1318 0.047,15.1976 0.0382,6.9166 0.0294,13.8318 0,20.7485 0.0226,2.0046 0.0451,4.009 0.0694,6.0742 -0.10417,12.4226 -1.69568,21.1962 -8.8349,31.46 -11.67034,8.0129 -22.38418,8.9474 -36.15889,8.8184 -2.01737,0.022 -4.03458,0.024 -6.11307,0.037 -6.73382,0.031 -13.46642,0 -20.20043,-0.021 -4.83786,0.021 -9.67572,0.024 -14.51358,0.042 -13.12217,0.034 -26.24366,0.024 -39.36567,0 -13.73373,-0.022 -27.46745,0 -41.2012,0.022 -23.05998,0.021 -46.11981,0 -69.1798,-0.042 -26.66319,-0.044 -53.32594,-0.029 -79.98924,0.022 -22.89352,0.034 -45.78696,0.042 -68.68054,0.022 -13.67308,-0.022 -27.34592,-0.022 -41.01899,0.022 -12.85185,0.023 -25.70307,0 -38.55488,-0.039 -4.71788,0 -9.43583,0 -14.15369,0 -6.43724,0.021 -12.87253,0 -19.30965,-0.045 -1.86943,0.021 -3.7389,0.034 -5.665,0.055 -11.38584,-0.1336 -18.65642,-1.6502 -27.55442,-8.8713 -10.56309,-11.9389 -8.9474,-25.8233 -8.88872,-40.908 -0.0205,-2.8403 -0.039,-5.6805 -0.0594,-8.607 -0.0558,-9.5351 -0.0554,-19.0695 -0.0549,-28.6047 -0.0276,-6.8292 -0.0584,-13.6584 -0.0922,-20.4875 -0.0837,-18.5654 -0.10944,-37.1305 -0.12413,-55.69591 -0.0105,-11.59555 -0.033,-23.19102 -0.0586,-34.78654 -0.0704,-32.11516 -0.12891,-64.23025 -0.13532,-96.3455 -3.9e-4,-2.05446 -8.2e-4,-4.10891 -9.7e-4,-6.22565 -7.7e-4,-4.16472 -9.7e-4,-8.32946 -9.7e-4,-12.49422 -3.8e-4,-2.06732 -7.5e-4,-4.13466 -9.7e-4,-6.26462 -3.9e-4,-2.06987 -7.5e-4,-4.13971 -9.7e-4,-6.27231 -0.01,-33.54157 -0.10375,-67.08228 -0.23792,-100.62356 -0.13669,-34.44986 -0.20532,-68.89926 -0.20378,-103.34939 -6.5e-4,-19.33728 -0.0299,-38.67359 -0.13337,-58.01064 -0.097,-18.18719 -0.0997,-36.37232 -0.0386,-54.55966 0.01,-6.67467 -0.0155,-13.34944 -0.0735,-20.02385 -0.0735,-9.11481 -0.0341,-18.22246 0.0335,-27.33715 -0.0478,-2.64002 -0.0959,-5.28009 -0.14486,-8.0001 0.27837,-16.62496 3.81855,-26.08699 15.72322,-37.92777 6.84843,-5.27879 11.57447,-6.3736 20.19449,-6.30786 z"
     fill="#fbfdfc"
     id="path3"
     style="stroke-width:2.6083" />
  <path
     d="m 259.52494,711.41829 c 4.60231,-0.0445 4.60231,-0.0445 9.29761,-0.0899 3.37,0.01 6.73999,0.0139 10.21211,0.0231 3.58185,-0.0184 7.16371,-0.0417 10.7455,-0.067 9.73267,-0.058 19.46477,-0.0656 29.19759,-0.0606 8.122,3.1e-4 16.24387,-0.022 24.36584,-0.0435 19.15961,-0.0502 38.31893,-0.0575 57.47868,-0.0399 19.77244,0.0156 39.54363,-0.0423 59.31599,-0.13897 16.97021,-0.0799 33.94006,-0.10981 50.91061,-0.0993 10.13808,0.006 20.27528,-0.01 30.41336,-0.0728 9.53382,-0.058 19.06573,-0.0533 28.59971,-2.1e-4 5.16874,0.0115 10.33748,-0.038 15.50586,-0.0911 4.61328,0.044 4.61328,0.044 9.31984,0.0885 2.67303,-9.6e-4 5.34607,-0.004 8.10004,-0.006 6.965,1.6266 6.965,1.6266 13.03916,7.41965 4.65774,7.74537 5.67242,11.59599 5.70142,20.51246 0.0331,2.61074 0.066,5.22146 0.10083,7.91128 -0.0209,2.83497 -0.0348,5.66997 -0.0504,8.59085 0.0226,3.00832 0.0451,6.01664 0.0677,9.11617 0.059,9.94391 0.0417,19.88591 0.0209,29.82993 0,5.16292 0.0209,10.32585 0.0347,15.48875 0.0451,16.22629 0.0348,32.45186 0,48.67812 -0.0452,16.72654 0,33.45132 0.0816,50.17769 0.0695,14.37655 0.0886,28.75255 0.066,43.12928 -0.0209,8.57993 0,17.1585 0.0469,25.73833 0.0451,9.56677 0,19.12985 -0.0504,28.69668 0.0451,4.2524 0.0451,4.2524 0.0921,8.5907 -0.1459,11.5513 -0.66939,19.198 -6.21484,29.4561 -13.80443,7.6727 -27.39105,6.5281 -42.92192,6.3653 -3.53103,0.01 -7.06227,0.024 -10.59365,0.044 -9.57117,0.037 -19.14059,-0.01 -28.71158,-0.067 -10.02066,-0.053 -20.04132,-0.037 -30.0618,-0.031 -16.82449,-2e-4 -33.64775,-0.052 -50.47172,-0.1354 -19.44945,-0.096 -38.89801,-0.119 -58.34757,-0.1009 -18.71612,0.016 -37.43188,-0.012 -56.14794,-0.062 -7.96299,-0.022 -15.92584,-0.028 -23.88886,-0.024 -9.37528,0 -18.74961,-0.035 -28.12465,-0.1024 -5.08137,-0.027 -10.16289,-0.016 -15.24435,-0.01 -3.02412,-0.03 -6.04823,-0.06 -9.16401,-0.089 -3.94168,-0.014 -3.94168,-0.014 -7.96304,-0.029 -8.12693,-1.1823 -11.68869,-2.834 -17.30192,-8.8242 -1.30561,-5.9513 -1.30561,-5.9513 -1.30728,-13.0679 -0.0258,-2.6989 -0.0513,-5.3978 -0.0777,-8.1783 0.0251,-2.9596 0.0504,-5.9191 0.0764,-8.9681 -0.0139,-3.1179 -0.0283,-6.2356 -0.0425,-9.4478 -0.027,-8.5528 -0.01,-17.10389 0.0357,-25.65654 0.0361,-8.94624 0.0184,-17.89239 0.0104,-26.83865 -0.006,-15.02436 0.0281,-30.04818 0.0886,-45.07239 0.0694,-17.37509 0.0739,-34.74929 0.0431,-52.12448 -0.0281,-16.70788 -0.0115,-33.41545 0.0249,-50.12329 0.0139,-7.11344 0.0139,-14.22663 9.7e-4,-21.34006 -0.01,-9.93001 0.0353,-19.8585 0.0922,-29.78833 -0.0116,-2.95947 -0.0235,-5.91895 -0.0354,-8.96812 0.0259,-2.69887 0.0515,-5.39775 0.0783,-8.17842 0.006,-2.34845 0.0116,-4.69691 0.0184,-7.11654 0.99197,-5.95138 0.99197,-5.95138 4.04677,-10.61623 6.67873,-4.42441 11.51677,-4.15967 19.50378,-4.18875 z"
     fill="#0d8f4b"
     id="path5"
     style="stroke-width:2.6083" />
  <path
     d="m 186.48641,385.93853 c 3.06751,-0.0376 6.13507,-0.075 9.29554,-0.11356 3.36982,-0.0275 6.73963,-0.055 10.21153,-0.0833 3.58214,-0.0376 7.16428,-0.0763 10.74642,-0.1155 32.72007,-0.33992 65.44245,-0.51165 98.16396,-0.64644 24.17127,-0.10146 48.33937,-0.27951 72.50925,-0.55959 17.01234,-0.19046 34.02392,-0.29033 51.03753,-0.32469 10.15155,-0.0231 20.29953,-0.0855 30.44975,-0.24695 9.56527,-0.15004 19.12409,-0.18735 28.69004,-0.14119 5.14736,-0.004 10.29474,-0.12284 15.44072,-0.24681 17.64394,0.20376 27.67136,2.19559 41.06206,14.1124 3.9057,4.041 7.74713,8.14509 11.51819,12.31197 4.05819,3.98454 8.13149,7.95381 12.22666,11.90034 8.70829,8.80008 16.89605,17.92044 24.95178,27.31578 6.44482,7.25226 13.37472,13.97009 20.2857,20.77466 6.58065,6.68518 12.63552,13.75474 18.74721,20.86636 4.83959,5.43402 9.89438,10.54484 15.07927,15.64975 8.47623,8.34602 16.29543,17.05658 24.03489,26.08297 4.87642,5.46326 10.00069,10.5476 15.25245,15.64977 14.19833,14.00512 28.11514,27.78841 28.87102,48.53524 0.0209,4.02249 0.0279,8.04505 0.0244,12.06756 0,2.21622 0.0209,4.43244 0.0225,6.71577 0.0226,7.45445 0.026,14.90875 0.0313,22.36321 0.0209,5.33378 0.0243,10.66753 0.038,16.00133 0.0348,14.51332 0.052,29.02664 0.0642,43.54 0,9.06751 0.0209,18.13501 0.0313,27.20256 0.0347,28.36993 0.0608,56.73986 0.0712,85.10983 0.0209,32.74767 0.0573,65.49504 0.13373,98.24263 0.0555,25.3102 0.0816,50.62031 0.085,75.93051 0,15.11685 0.0209,30.23336 0.066,45.35006 0.0434,14.2283 0.0486,28.456 0.026,42.6843 0,5.214 0,10.4281 0.0347,15.642 0.0331,7.1364 0.0209,14.2711 0,21.4073 0.0313,3.0712 0.0313,3.0712 0.0642,6.2043 -0.14763,16.708 -3.40043,32.7819 -12.96326,46.7474 -1.43917,1.3517 -2.87798,2.7031 -4.36074,4.0958 -1.41225,1.3921 -2.82414,2.784 -4.27929,4.2181 -14.42673,10.3126 -27.65695,12.9136 -45.12424,12.7864 -2.0778,0.021 -4.15563,0.031 -6.29647,0.048 -6.92385,0.044 -13.84629,0.031 -20.7703,0.022 -4.97974,0.022 -9.95952,0.042 -14.93927,0.069 -13.49961,0.058 -26.9987,0.066 -40.4983,0.061 -11.27849,-2e-4 -22.55699,0.024 -33.83532,0.044 -26.61067,0.048 -53.22116,0.058 -79.83182,0.042 -27.43545,-0.022 -54.86983,0.044 -82.30491,0.139 -23.57377,0.079 -47.14725,0.1096 -70.72116,0.099 -14.07149,0 -28.14225,0 -42.21359,0.071 -13.23325,0.058 -26.465,0.055 -39.69824,2e-4 -4.84923,0 -9.69854,0 -14.54764,0.042 -44.26573,0.3172 -44.26573,0.3172 -58.88021,-11.1406 -1.18216,-1.1751 -2.36432,-2.35 -3.58229,-3.5605 -1.92747,-1.9086 -1.92747,-1.9086 -3.89389,-3.8555 -10.30589,-11.3484 -15.00926,-22.3311 -15.03519,-37.5512 -0.0251,-3.756 -0.0251,-3.756 -0.0512,-7.5883 0.01,-2.7302 0.0155,-5.4606 0.0243,-8.2737 -0.0116,-2.9166 -0.0237,-5.8333 -0.036,-8.8383 -0.0331,-9.7935 -0.0286,-19.5865 -0.0243,-29.38 -0.0155,-7.0133 -0.0332,-14.0266 -0.053,-21.04 -0.0432,-17.085 -0.0575,-34.17 -0.0605,-51.255 -9.8e-4,-13.8878 -0.0115,-27.77558 -0.0296,-41.66341 -0.0459,-39.37872 -0.07,-78.75736 -0.066,-118.13606 2.1e-4,-2.12257 4.3e-4,-4.24511 6.5e-4,-6.43197 2.2e-4,-2.12517 4.1e-4,-4.2503 6.2e-4,-6.43985 9.8e-4,-34.44544 -0.0476,-68.8906 -0.12142,-103.33597 -0.075,-35.37234 -0.11097,-70.74452 -0.10635,-106.11695 9.8e-4,-19.85738 -0.0115,-39.71441 -0.0685,-59.57172 -0.0475,-16.90583 -0.0589,-33.81121 -0.0234,-50.7171 0.0156,-8.62375 0.0115,-17.24646 -0.028,-25.87014 -0.0401,-9.35393 -0.0156,-18.70557 0.0241,-28.05945 -0.0269,-2.71867 -0.0535,-5.43734 -0.0815,-8.23842 0.18327,-19.22625 3.72602,-30.60737 17.11252,-44.94452 1.74502,-1.45921 3.49002,-2.91844 5.28789,-4.42186 1.75173,-1.49958 3.50348,-2.99914 5.30829,-4.54414 8.94061,-6.49892 16.80991,-6.57416 27.5142,-6.6867 z m -27.76889,50.02922 c -2.47267,9.67695 -2.43956,18.89339 -2.26582,28.84255 -0.023,2.85067 -0.0459,5.70129 -0.0695,8.63829 -0.0544,9.52472 0.0214,19.04388 0.097,28.56838 -0.0116,6.83885 -0.0319,13.67767 -0.0589,20.51646 -0.0511,16.62866 -0.004,33.25567 0.0754,49.88413 0.0899,19.37141 0.085,38.74239 0.0771,58.11392 -0.0105,34.56408 0.0673,69.12743 0.19413,103.69123 0.1231,33.5285 0.17855,67.05622 0.16049,100.58495 -0.0225,42.36258 0.0139,84.7247 0.10103,127.08721 0.0259,13.49922 0.0304,26.99838 0.028,40.49763 -9.8e-4,18.1677 0.0533,36.3345 0.14694,54.5022 0.0262,6.6724 0.0349,13.3452 0.0247,20.0178 -0.0105,9.0976 0.042,18.1926 0.11187,27.2899 -0.0184,2.6499 -0.036,5.2999 -0.0544,8.0299 0.19516,14.8877 1.43454,24.2746 11.86504,35.7999 9.02951,6.9158 19.37598,5.9538 30.29747,5.8967 2.01094,0 4.02186,0.022 6.09371,0.031 6.74384,0.026 13.4871,0.022 20.23096,0 4.83292,0.022 9.66583,0.024 14.49875,0.042 13.13314,0.034 26.2661,0.037 39.39928,0.031 10.96094,0 21.92182,0 32.88274,0.024 25.85877,0.029 51.71742,0.031 77.57619,0.022 26.68092,-0.022 53.36151,0.021 80.04229,0.071 22.90228,0.045 45.8044,0.061 68.70686,0.055 13.68041,0 27.36082,0 41.04123,0.039 12.86669,0.033 25.73303,0.028 38.59955,0 4.72114,0 9.44211,9e-4 14.16326,0.024 6.44792,0.026 12.89395,0 19.34188,-0.026 1.8654,0.022 3.73095,0.038 5.65279,0.058 12.07869,-0.132 20.52488,-1.9912 30.52383,-8.859 8.3597,-12.0185 8.92731,-23.3286 8.76579,-37.5342 0,-2.1649 0.0209,-4.3298 0.0209,-6.5602 0.0209,-7.2332 -0.0313,-14.4649 -0.0746,-21.6977 0,-5.1933 -9.7e-4,-10.3864 0,-15.5795 0,-14.0858 -0.0434,-28.1711 -0.0989,-42.2568 -0.0486,-14.7249 -0.0539,-29.44985 -0.0644,-44.17491 -0.0243,-27.87846 -0.0886,-55.75667 -0.16675,-83.63504 -0.0886,-31.74082 -0.132,-63.48165 -0.1702,-95.22256 -0.0817,-65.28835 -0.21937,-130.57654 -0.39358,-195.86473 -1.72992,-0.0104 -3.45966,-0.0185 -5.24186,-0.0289 -18.02622,-0.10932 -36.05033,-0.29009 -54.07516,-0.51243 -6.72463,-0.0737 -13.44907,-0.12891 -20.17369,-0.16571 -9.67398,-0.0559 -19.34519,-0.17753 -29.01865,-0.31202 -3.00009,-0.004 -6.00017,-0.006 -9.09109,-0.0105 -16.34493,-0.29822 -26.51183,-0.96447 -38.89724,-12.01289 -12.30551,-12.98914 -16.24142,-26.19074 -16.48146,-43.87615 -0.0782,-4.38471 -0.0782,-4.38471 -0.15804,-8.858 -0.0451,-4.67132 -0.0451,-4.67132 -0.092,-9.43699 -0.0765,-4.8299 -0.0765,-4.8299 -0.15285,-9.75732 -0.15632,-10.25754 -0.27702,-20.51515 -0.39739,-30.77315 -0.0956,-6.96572 -0.20077,-13.93131 -0.30552,-20.89694 -0.25011,-17.05211 -0.47189,-34.10442 -0.67251,-51.15721 -44.57453,-0.48781 -89.14856,-0.85558 -133.72535,-1.08113 -20.69873,-0.10775 -41.39577,-0.25404 -62.09343,-0.49302 -18.04386,-0.20823 -36.08648,-0.34268 -54.13149,-0.38913 -9.5522,-0.027 -19.101,-0.0909 -28.65211,-0.24294 -10.67305,-0.16847 -21.34016,-0.17245 -32.01449,-0.16256 -4.73067,-0.11253 -4.73067,-0.11253 -9.5569,-0.22735 -2.92204,0.0287 -5.84409,0.0574 -8.85469,0.0868 -2.52211,-0.0184 -5.04424,-0.0385 -7.64278,-0.0581 -12.41505,4.18129 -19.36952,12.23363 -25.88165,23.43394 z"
     fill="#098e48"
     id="path7"
     style="stroke-width:2.6083" />
  <path
     d="m 263.04931,845.47005 c 49.92277,0 99.84554,0 151.28113,0 0,24.10067 0,48.2013 0,73.03229 -49.92279,0 -99.84555,0 -151.28113,0 0,-24.10066 0,-48.20131 0,-73.03229 z"
     fill="#f5faf7"
     id="path16"
     style="stroke-width:2.6083" />
  <path
     d="m 440.41347,845.47005 c 49.9226,0 99.84528,0 151.28094,0 0,24.10067 0,48.2013 0,73.03229 -49.92268,0 -99.84553,0 -151.28094,0 0,-24.10066 0,-48.20131 0,-73.03229 z"
     fill="#f4f9f7"
     id="path17"
     style="stroke-width:2.6083" />
  <path
     d="m 443.02161,947.19358 c 49.06209,0 98.12399,0 148.6728,0 0,23.2399 0,46.47986 0,70.42392 -49.06189,0 -98.12396,0 -148.6728,0 0,-23.23993 0,-46.47977 0,-70.42392 z"
     fill="#fafcfb"
     id="path19"
     style="stroke-width:2.6083" />
  <path
     d="m 265.65761,947.19358 c 49.06203,0 98.12407,0 148.67283,0 0,23.2399 0,46.47986 0,70.42392 -49.06205,0 -98.12406,0 -148.67283,0 0,-23.23993 0,-46.47977 0,-70.42392 z"
     fill="#f9fcfa"
     id="path20"
     style="stroke-width:2.6083" />
  <path
     d="m 443.02161,746.35485 c 49.06209,0 98.12399,0 148.6728,0 0,23.23992 0,46.47984 0,70.42396 -49.06189,0 -98.12396,0 -148.6728,0 0,-23.23991 0,-46.47981 0,-70.42396 z"
     fill="#fcfdfc"
     id="path21"
     style="stroke-width:2.6083" />
  <path
     d="m 265.65761,746.35485 c 49.06203,0 98.12407,0 148.67283,0 0,23.23992 0,46.47984 0,70.42396 -49.06205,0 -98.12406,0 -148.67283,0 0,-23.23991 0,-46.47981 0,-70.42396 z"
     fill="#fbfdfc"
     id="path22"
     style="stroke-width:2.6083" />
  <path
     d="m 106.25018,106.087 c 5.23835,3.05946 9.40288,6.64769 12.15806,12.15805 0.16881,5.19207 0.22908,10.34367 0.2137,15.5362 0.002,1.63739 0.004,3.2748 0.006,4.96181 0.005,5.5491 -0.002,11.09813 -0.0105,16.64723 7.6e-4,3.99347 0.002,7.98694 0.004,11.98039 0.004,11.02243 -0.002,22.04483 -0.0115,33.06726 -0.008,10.65075 -0.005,21.30148 -0.004,31.95225 0.002,21.7956 -0.004,43.59121 -0.0139,65.38684 -0.0105,21.58895 -0.017,43.17789 -0.0189,64.76686 -1.2e-4,1.34094 -2.4e-4,2.68192 -3.5e-4,4.0635 -5.9e-4,6.80969 -9.7e-4,13.6194 -9.7e-4,20.42911 -0.004,48.26755 -0.0154,96.53511 -0.0319,144.80266 -0.0159,46.89929 -0.0282,93.79857 -0.0357,140.69786 -2.4e-4,1.44494 -4.6e-4,2.88987 -7e-4,4.37861 -0.002,14.51034 -0.005,29.02068 -0.006,43.53103 -0.004,29.5608 -0.01,59.12159 -0.0145,88.6824 -2.4e-4,1.35924 -4.8e-4,2.71848 -7.3e-4,4.11889 -0.016,90.81011 -0.0435,181.62027 -0.0728,272.43035 5.27941,-3.0386 10.55571,-6.0827 15.83149,-9.1274 1.48432,-0.8542 2.96863,-1.7086 4.49793,-2.5886 10.87894,-6.2837 21.45546,-12.866 31.88504,-19.8732 2.91036,-1.9498 5.82525,-3.8929 8.74539,-5.828 1.22708,-0.8244 2.45414,-1.6488 3.7184,-2.4981 3.05944,-1.7695 3.05944,-1.7695 6.53316,-1.7695 2.38881,3.424 4.6932,6.9073 6.94748,10.4212 4.66347,6.4687 8.78724,9.9023 15.63175,13.8949 0,1.1463 0,2.2927 0,3.4737 -2.77532,2.2191 -2.77532,2.2191 -6.68285,4.7288 -1.43347,0.9277 -2.86695,1.8551 -4.34385,2.8106 -1.55549,0.9869 -3.11099,1.9736 -4.71362,2.9905 -1.5846,1.0158 -3.16919,2.0317 -4.80182,3.0785 -23.20909,14.8137 -46.86302,29.6469 -71.51164,41.9713 -0.57317,19.4878 -1.14634,38.9752 -1.73686,59.0535 7.81354,-0.011 7.81354,-0.011 15.7849,-0.021 91.12863,-0.1113 182.25726,-0.2136 273.38592,-0.2747 1.42606,0 2.8521,0 4.32137,0 30.99008,-0.022 61.98014,-0.04 92.97022,-0.058 15.19699,-0.011 30.39399,-0.018 45.59097,-0.027 1.51231,-9e-4 3.02461,0 4.58273,0 49.03971,-0.029 98.07938,-0.082 147.11905,-0.1459 50.38435,-0.066 100.76867,-0.1081 151.15304,-0.1222 7.11245,0 14.22488,0 21.33733,-0.011 2.0998,-8e-4 2.0998,-8e-4 4.24201,0 22.55623,-0.011 45.11225,-0.041 67.66842,-0.081 22.66317,-0.041 45.32617,-0.057 67.98935,-0.046 13.4733,0.011 26.9464,-0.011 40.4197,-0.051 10.0481,-0.029 20.0959,-0.022 30.144,-7e-4 4.0747,0 8.1493,-0.011 12.224,-0.028 5.5213,-0.027 11.041,-0.013 16.5623,0.013 2.3957,-0.027 2.3957,-0.027 4.8399,-0.056 9.5761,0.1013 15.0961,1.4406 22.6776,7.8575 3.7574,4.7593 5.0777,7.7925 5.9705,13.7864 -0.9739,6.8179 -3.3702,10.4394 -7.7074,15.7404 -4.935,3.0464 -8.6285,3.9083 -14.3894,3.9111 -1.4863,0.011 -2.9726,0.019 -4.5041,0.027 -1.628,-0.011 -3.2557,-0.016 -4.9329,-0.024 -2.6107,0.011 -2.6107,0.011 -5.2741,0.017 -5.8786,0.015 -11.7571,0 -17.6359,-0.011 -4.2385,0 -8.477,0.012 -12.7156,0.02 -9.2397,0.015 -18.4793,0.018 -27.7191,0.012 -13.7399,-0.011 -27.4796,0 -41.2195,0.016 -25.96539,0.026 -51.93065,0.029 -77.89599,0.025 -20.04863,0 -40.0973,-10e-5 -60.14599,0.011 -2.87802,0 -5.75603,0 -8.63406,0 -4.33664,0 -8.67331,0 -13.00997,0 -40.33416,0.015 -80.66834,0.023 -121.00251,0.015 -1.52135,-3e-4 -3.04268,-5e-4 -4.61013,-8e-4 -7.71115,0 -15.4223,0 -23.13345,0 -1.53152,-3e-4 -3.06305,-6e-4 -4.64096,-9e-4 -3.09711,-7e-4 -6.19422,0 -9.29133,0 -48.19196,-0.011 -96.38387,0 -144.57583,0.037 -54.11755,0.035 -108.23507,0.055 -162.35264,0.047 -5.76831,-6e-4 -11.53662,0 -17.30493,0 -1.42034,-2e-4 -2.84069,-3e-4 -4.30407,-6e-4 -21.46083,0 -42.92164,0.011 -64.38245,0.028 -24.40291,0.02 -48.80574,0.024 -73.20863,0 -13.66205,-0.012 -27.32392,-0.011 -40.98594,0.015 -10.19138,0.016 -20.38263,0 -30.57401,-0.017 -4.13059,0 -8.26118,-4e-4 -12.39176,0.014 -5.6006,0.018 -11.20026,0 -16.80081,-0.02 -1.61571,0.013 -3.2314,0.025 -4.89606,0.039 -10.86651,-0.09 -19.534647,-1.4916 -28.14158,-8.702 -0.794811,-0.974 -1.589632,-1.9478 -2.408545,-2.9513 -1.225807,-1.4407 -1.225807,-1.4407 -2.476377,-2.9105 -6.374213,-10.1631 -6.159341,-20.3781 -6.107144,-31.959 -0.0049,-1.8242 -0.01156,-3.6482 -0.01691,-5.5276 -0.01438,-6.1426 -0.0039,-12.2849 0.0059,-18.4274 -0.0049,-4.4363 -0.01156,-8.8726 -0.02002,-13.3087 -0.01526,-9.6608 -0.01759,-19.3216 -0.01156,-28.9823 0.0097,-14.366 -9.73e-4,-28.7317 -0.01575,-43.0976 -0.02653,-27.1477 -0.02934,-54.2952 -0.02517,-81.44288 0.002,-20.95954 1.46e-4,-41.91898 -0.0077,-62.87842 -9.72e-4,-3.00953 -0.002,-6.01904 -0.002,-9.02855 -9.72e-4,-4.53484 -0.002,-9.06968 -0.0049,-13.60452 -0.01477,-42.16954 -0.02216,-84.33906 -0.01497,-126.50858 2.73e-4,-1.59018 5.44e-4,-3.18034 8.26e-4,-4.81872 9.71e-4,-8.05992 0.002,-16.11987 0.0039,-24.1798 2.92e-4,-1.60078 5.93e-4,-3.20156 8.85e-4,-4.85084 6.12e-4,-3.23716 9.72e-4,-6.47432 9.72e-4,-9.71149 0.0097,-50.38458 -0.0039,-100.76911 -0.03645,-151.1537 -0.03596,-56.585 -0.05462,-113.16995 -0.04752,-169.75495 6.8e-4,-6.03017 9.71e-4,-12.06034 9.71e-4,-18.09051 1.65e-4,-1.48482 3.21e-4,-2.96964 4.86e-4,-4.49947 0.002,-22.43941 -0.0097,-44.87877 -0.02798,-67.31816 -0.02089,-25.51018 -0.02371,-51.02029 -0.002,-76.53047 0.01156,-14.2837 0.0097,-28.56724 -0.01497,-42.85095 -0.01593,-10.65093 -0.0049,-21.30169 0.01711,-31.95263 0.0049,-4.3198 3.59e-4,-8.63962 -0.01341,-12.95939 -0.01749,-5.85158 -0.002,-11.70223 0.01963,-17.55376 -0.01282,-1.69451 -0.02536,-3.38901 -0.03858,-5.13486 0.09136,-11.31211 1.796311,-18.8747 9.699309,-27.4551 6.323706,-3.6537 11.738966,-4.45886 18.779837,-2.8224 z"
     fill="#0f2c48"
     id="path4"
     style="stroke-width:1.73686" />
  <path
     d="m 818.30333,25.268558 c 5.16764,1.348945 7.15621,3.732213 10.48225,7.870166 0.7887,5.093558 0.7887,5.093558 0.67846,10.936815 -0.0224,2.093395 -0.0447,4.186791 -0.0678,6.343625 -0.0873,3.267711 -0.0873,3.267711 -0.1764,6.601439 -0.0313,2.205342 -0.0627,4.410684 -0.095,6.682855 -0.0819,5.444851 -0.19615,10.887061 -0.33923,16.330592 1.7486,-0.03582 3.4972,-0.07164 5.29879,-0.108558 46.79712,0.740608 88.34534,26.585808 121.49231,57.425058 1.3075,1.17321 2.615,2.3464 3.96216,3.55515 24.44463,22.89536 41.45463,55.08146 48.51023,87.58951 1.1734,5.99131 1.1734,5.99131 3.2838,10.93681 2.2863,8.21112 1.8316,16.24006 1.5604,24.7096 2.1416,-0.0682 2.1416,-0.0682 4.3265,-0.1378 6.4819,-0.18076 12.9632,-0.29357 19.4467,-0.40497 3.3702,-0.10918 3.3702,-0.10918 6.8084,-0.22049 3.2493,-0.042 3.2493,-0.042 6.5643,-0.0848 2.9877,-0.0682 2.9877,-0.0682 6.0361,-0.13781 7.162,1.29557 9.7301,3.99029 14.1345,9.6702 0.1086,6.29614 0.1086,6.29614 -1.7369,12.15805 -4.0633,4.14521 -6.3871,5.1475 -12.2005,5.80214 -2.001,-0.0274 -4.002,-0.0545 -6.0638,-0.0827 -2.1718,-0.0167 -4.3434,-0.0336 -6.581,-0.051 -2.2613,-0.0436 -4.5226,-0.0873 -6.8525,-0.13232 -2.2881,-0.0234 -4.5763,-0.047 -6.9339,-0.0712 -5.6499,-0.0613 -11.2986,-0.14715 -16.9479,-0.25444 0.036,1.21672 0.07,2.43344 0.1068,3.68702 0.4486,26.93869 -8.8299,50.94372 -21.05788,74.58042 -0.59164,1.16103 -1.18329,2.32204 -1.79283,3.51825 -4.43118,8.32628 -4.43118,8.32628 -10.25661,10.26809 -4.68821,-2.11001 -4.68821,-2.11001 -9.87847,-5.10201 -1.72626,-0.9829 -3.45242,-1.96579 -5.23097,-2.97846 -1.31867,-0.77244 -2.63744,-1.54486 -3.99616,-2.34069 0.86396,-6.68219 3.17574,-11.77012 6.39075,-17.65402 10.92211,-20.00348 16.81587,-41.41651 19.66229,-63.9786 -1.43688,0.0364 -2.87363,0.0728 -4.35412,0.1102 -6.50902,0.14441 -13.01776,0.23479 -19.52775,0.32397 -2.26136,0.0583 -4.52261,0.1164 -6.85248,0.17639 -2.17184,0.0225 -4.34359,0.0447 -6.58113,0.0678 -2.001,0.0364 -4.00209,0.0727 -6.06373,0.11019 -6.39435,-0.96007 -8.39311,-2.59187 -12.20045,-7.73616 -0.96231,-6.73617 -1.29292,-10.42571 2.84445,-15.96931 5.3335,-4.0767 8.3796,-3.94031 15.03975,-3.81464 2.09352,0.0224 4.18693,0.0447 6.34371,0.0679 3.26769,0.0873 3.26769,0.0873 6.60135,0.17639 2.20547,0.0314 4.41075,0.0627 6.68299,0.095 5.44486,0.0819 10.88701,0.19617 16.33053,0.33924 -1.87719,-13.70248 -4.18509,-26.93718 -8.25016,-40.16498 -0.45695,-1.49435 -0.91391,-2.98867 -1.38486,-4.52831 -3.62784,-11.43584 -8.04052,-21.68684 -14.68114,-31.7287 -0.95376,-1.49562 -1.9075,-2.99123 -2.89013,-4.53214 -15.66093,-23.05824 -35.59151,-40.72326 -59.63692,-54.52125 -0.97655,-0.59361 -1.9532,-1.1872 -2.95934,-1.79877 -7.07579,-4.23576 -14.22309,-7.28536 -22.1166,-9.70796 -1.17881,-0.3676 -2.35761,-0.7352 -3.57211,-1.11395 -12.82321,-3.78719 -25.80832,-5.30152 -39.08961,-6.48482 -0.008,1.37512 -0.0143,2.75024 -0.0216,4.16703 -0.0572,6.24725 -0.17995,12.49158 -0.30406,18.73786 -0.0151,3.24587 -0.0151,3.24587 -0.0305,6.55734 -0.43195,17.90154 -0.43195,17.90154 -5.47859,23.20681 -5.67543,3.6017 -8.41868,4.3125 -15.00759,2.91061 -4.73626,-4.66289 -6.77629,-7.50156 -7.73617,-14.1345 0.0364,-1.99195 0.0728,-3.98388 0.1102,-6.0362 0.0225,-2.16616 0.0447,-4.33233 0.0679,-6.56413 0.0872,-3.37014 0.0872,-3.37014 0.17638,-6.80837 0.0313,-2.28035 0.0627,-4.56068 0.095,-6.91014 0.0818,-5.62235 0.196,-11.24211 0.33924,-16.86318 -36.60369,5.14646 -66.49944,16.4386 -95.52752,39.94787 -1.13739,0.87094 -2.27475,1.74188 -3.44659,2.63922 -28.57965,22.74572 -50.22141,63.30663 -54.46612,99.74288 -0.43003,4.66052 -0.81453,9.31896 -1.14066,13.98778 1.32248,-0.0364 2.645,-0.0728 4.00759,-0.11021 6.00937,-0.14469 12.01839,-0.23487 18.02886,-0.32397 2.08109,-0.0583 4.16216,-0.11639 6.3063,-0.17639 2.00944,-0.0224 4.01888,-0.0447 6.08921,-0.0679 1.84641,-0.0364 3.69283,-0.0727 5.59519,-0.11022 6.4407,0.98999 9.29056,3.116 13.81562,7.73616 0.97699,6.07903 0.97699,6.07903 0,12.15805 -3.81333,5.14012 -5.8049,6.7759 -12.20044,7.73617 -2.00105,-0.0364 -4.00209,-0.0728 -6.06378,-0.1102 -3.25762,-0.0337 -3.25762,-0.0337 -6.58108,-0.0678 -3.39197,-0.0873 -3.39197,-0.0873 -6.85247,-0.17639 -2.28819,-0.0313 -4.57635,-0.0627 -6.93388,-0.095 -5.6506,-0.0819 -11.29866,-0.19618 -16.94799,-0.33924 3.98745,27.28711 11.74804,55.18846 27.39632,78.26744 2.44068,3.85537 4.01802,7.78046 5.60409,12.0495 5.93729,-5.52969 10.49886,-11.70367 15.089,-18.34563 14.75266,-20.92307 31.58245,-39.53292 49.17496,-58.07638 6.78861,2.26285 7.59886,4.99313 11.18106,11.07251 3.77996,6.40986 6.84339,10.91506 13.13504,14.98045 -2.68122,6.54575 -6.69775,10.30017 -11.8324,15.08899 -11.69222,11.27355 -21.24249,24.05255 -30.8344,37.11616 -2.19165,2.96816 -4.43425,5.89859 -6.68456,8.82254 -1.12395,1.49784 -2.24789,2.99569 -3.4059,4.53891 -0.9448,1.24486 -1.88963,2.48969 -2.8631,3.77225 -1.99661,3.60395 -1.99661,3.60395 -1.75722,7.97874 2.59571,6.22966 6.32361,7.91318 12.11057,11.26246 1.54213,0.89606 1.54213,0.89606 3.1154,1.81023 3.0324,1.74408 6.09145,3.44159 9.15119,5.13724 2.16952,1.24596 2.16952,1.24596 4.38288,2.51707 19.80781,10.71516 41.26604,15.24691 63.35483,18.32528 -0.0364,-1.43683 -0.0728,-2.87365 -0.11021,-4.35401 -0.1444,-6.50909 -0.23479,-13.01781 -0.32398,-19.52785 -0.0873,-3.392 -0.0873,-3.392 -0.17638,-6.85248 -0.0225,-2.17175 -0.0447,-4.34352 -0.0679,-6.58108 -0.0364,-2.00104 -0.0727,-4.0021 -0.11021,-6.06378 0.96008,-6.39433 2.59187,-8.39316 7.73617,-12.20045 6.72288,-0.9604 10.42127,-1.28538 15.9693,2.82072 4.13242,5.43762 3.9379,8.66508 3.81466,15.44351 -0.0224,2.17175 -0.0447,4.34351 -0.0678,6.58108 -0.0873,3.39198 -0.0873,3.39198 -0.1764,6.85248 -0.0313,2.28818 -0.0627,4.57635 -0.095,6.93387 -0.082,5.6506 -0.1962,11.29867 -0.33923,16.94799 0.98862,-0.20137 1.97724,-0.40272 2.99582,-0.61018 4.53693,-0.92194 9.07491,-1.83849 13.61293,-2.75499 1.55494,-0.31681 3.10987,-0.63361 4.71192,-0.96002 1.52807,-0.30785 3.05612,-0.61571 4.63051,-0.93289 1.39162,-0.28197 2.78326,-0.56393 4.21707,-0.85443 5.54932,-1.01409 11.14256,-1.77402 16.72707,-2.57182 1.7195,8.5975 3.43898,17.19497 5.21057,26.05298 -17.51862,6.3182 -33.51841,8.95086 -52.10589,8.68431 0.0455,1.42775 0.091,2.85548 0.1378,4.32648 0.18075,6.48194 0.29356,12.96336 0.40496,19.44685 0.10918,3.37015 0.10918,3.37015 0.2205,6.80837 0.028,2.16617 0.0558,4.33232 0.0848,6.56413 0.0683,2.98791 0.0683,2.98791 0.13781,6.03619 -1.29555,7.1621 -3.99028,9.73015 -9.67021,14.13449 -6.29612,0.10855 -6.29612,0.10855 -12.15805,-1.73687 -4.1452,-4.06328 -5.14749,-6.38712 -5.80213,-12.20044 0.0274,-2.00104 0.0545,-4.00208 0.0827,-6.06376 0.0167,-2.17175 0.0336,-4.34351 0.051,-6.58108 0.0436,-2.26132 0.0873,-4.52264 0.1323,-6.85248 0.0234,-2.28818 0.047,-4.57637 0.0712,-6.93389 0.0613,-5.65004 0.14713,-11.29865 0.25442,-16.94799 -1.08378,0.0353 -2.16757,0.0705 -3.28418,0.10685 -10.0576,0.18642 -19.01018,-0.64939 -28.73925,-3.14638 -1.27814,-0.31848 -2.55629,-0.63696 -3.87317,-0.96512 -24.06499,-6.1521 -48.42296,-15.92178 -67.25005,-32.58483 -2.74864,-1.9484 -2.74864,-1.9484 -6.14559,-1.33107 -4.94714,1.98549 -5.9654,4.41995 -8.48885,9.07232 -1.33286,2.41217 -1.33286,2.41217 -2.69265,4.87306 -0.93838,1.75027 -1.87678,3.50054 -2.84359,5.30387 -2.0297,3.69149 -4.06059,7.38231 -6.09261,11.07251 -1.01925,1.86727 -2.03854,3.73454 -3.0887,5.65837 -4.28861,7.80014 -8.73298,15.50698 -13.18082,23.21699 -9.10406,15.8718 -17.99569,31.85831 -26.85822,47.86595 -8.26904,14.92476 -16.637,29.79085 -25.098,44.60765 -5.03735,8.85805 -9.79402,17.77648 -14.26172,26.9358 -6.94477,-3.421 -13.47496,-7.3692 -20.08249,-11.39818 -3.66715,-2.16267 -7.34723,-4.12454 -11.18106,-5.97046 1.18349,-5.78244 3.3382,-10.49033 6.05189,-15.71998 0.89655,-1.73068 1.7931,-3.46138 2.71681,-5.24451 0.97519,-1.85832 1.95039,-3.71661 2.95514,-5.63123 1.51818,-2.90502 1.51818,-2.90502 3.06707,-5.86872 9.36323,-17.80259 19.22241,-35.29921 29.20738,-52.75807 4.01037,-7.05221 7.95461,-14.14058 11.90108,-21.22867 9.32861,-16.74915 18.79047,-33.41272 28.44708,-49.97513 1.48923,-2.55552 1.48923,-2.55552 3.00856,-5.16267 0.94386,-1.61216 1.88769,-3.22433 2.86014,-4.88535 1.3337,-2.29086 1.3337,-2.29086 2.69434,-4.62796 1.70454,-2.81328 3.49056,-5.57927 5.36494,-8.28233 5.01249,-6.71277 5.01249,-6.71277 5.08253,-14.676 -2.59275,-3.9026 -5.20214,-7.7079 -8.04656,-11.43209 -7.18071,-9.96569 -12.35928,-20.66557 -17.67395,-31.69099 -2.79711,-5.98868 -2.79711,-5.98868 -6.42503,-11.18784 -0.95184,-2.72229 -1.81302,-5.47718 -2.60531,-8.25011 -0.41194,-1.42396 -0.8239,-2.8479 -1.24835,-4.31502 -0.44779,-1.58515 -0.89557,-3.17033 -1.35693,-4.80351 -0.60451,-1.8919 -1.20902,-3.78379 -1.83185,-5.733 -1.821,-7.12598 -2.40614,-13.76389 -2.72741,-21.07984 -0.10082,-1.90588 -0.10082,-1.90588 -0.20355,-3.85026 -0.1618,-3.0943 -0.30658,-6.18947 -0.44778,-9.28478 -1.43683,0.0364 -2.87367,0.0728 -4.35404,0.1102 -6.50907,0.14441 -13.0178,0.23479 -19.52785,0.32397 -2.26132,0.0583 -4.52263,0.1164 -6.85246,0.17639 -2.17176,0.0225 -4.34351,0.0447 -6.58109,0.0679 -2.00104,0.0364 -4.00208,0.0727 -6.06376,0.11019 -6.39434,-0.96007 -8.39316,-2.59187 -12.20045,-7.73615 -0.96041,-6.72287 -1.28539,-10.42126 2.8207,-15.96931 5.43761,-4.13241 8.66508,-3.9379 15.44351,-3.81465 3.25764,0.0336 3.25764,0.0336 6.58109,0.0679 3.39196,0.0873 3.39196,0.0873 6.85246,0.1764 2.28818,0.0314 4.57638,0.0627 6.9339,0.095 5.65058,0.0819 11.29866,0.19618 16.94799,0.33923 -0.0115,-1.0201 -0.0226,-2.04021 -0.0343,-3.09125 -0.31246,-48.43547 25.38702,-91.86016 58.43639,-125.65378 24.27051,-24.10323 53.3892,-40.51482 86.19187,-50.151946 1.18733,-0.361167 2.37467,-0.722334 3.59798,-1.094444 11.31401,-3.047778 22.53452,-2.702113 34.17883,-2.379283 -0.041,-2.155246 -0.041,-2.155246 -0.0828,-4.354033 -0.10828,-6.509161 -0.17609,-13.018134 -0.24297,-19.527846 -0.0436,-2.261316 -0.0873,-4.522632 -0.13229,-6.852471 -0.0251,-3.257639 -0.0251,-3.257639 -0.051,-6.581087 -0.0408,-3.00156 -0.0408,-3.00156 -0.0828,-6.063758 1.21955,-10.829917 5.6031,-12.960398 16.16226,-13.123161 z"
     fill="#196fee"
     id="path6"
     style="stroke-width:1.73686" />
  <path
     d="m 882.62836,366.61659 c 8.41383,0.50761 14.98979,3.64894 22.25361,7.6327 1.11436,0.59594 2.22883,1.19187 3.37705,1.80585 3.62226,1.94168 7.23284,3.9043 10.84348,5.86755 2.53006,1.36157 5.06071,2.72187 7.59194,4.08097 7.32303,3.93805 14.63148,7.90215 21.93478,11.87649 1.79555,0.977 3.5912,1.95402 5.44118,2.96064 6.03574,3.28972 12.06828,6.58481 18.0947,9.89155 15.28904,8.37356 30.6966,16.52083 46.1011,24.67923 16.3059,8.63779 32.55,17.37484 48.7192,26.26694 13.5583,7.43004 27.2688,14.55928 41.032,21.60183 1.593,0.82098 3.1858,1.64196 4.827,2.48785 1.4121,0.72232 2.8244,1.44465 4.2792,2.18887 3.4552,1.97687 3.4552,1.97687 6.9288,5.4506 -0.1081,3.36517 -0.1081,3.36517 -1.7367,6.94745 -6.5312,4.61379 -12.9346,6.66486 -20.6254,8.68432 -6.3362,1.67112 -12.2329,3.41256 -18.2573,6.00439 -7.1488,3.05273 -14.3324,5.22996 -21.799,7.34775 -2.0301,0.58604 -2.0301,0.58604 -4.1012,1.18393 -3.299,0.95116 -6.6004,1.89286 -9.9024,2.83258 -1.8861,3.63314 -1.8861,3.63314 -1.7367,8.68433 3.0515,5.13009 7.0126,9.43996 10.9638,13.89488 2.2668,2.64808 4.5306,5.29863 6.7915,7.95159 1.1221,1.3042 2.2439,2.60836 3.3999,3.95205 5.7239,6.75125 11.0306,13.79858 16.3637,20.85933 2.9766,3.8929 5.9877,7.70533 9.0914,11.49316 0.81,1.00471 1.6198,2.00943 2.4544,3.04459 2.251,2.78802 4.5247,5.55786 6.7999,8.32643 3.1887,5.16311 3.1887,5.16311 4.5456,10.27871 -2.2008,8.60503 -8.5198,12.26318 -15.469,17.35509 -1.9814,1.56667 -1.9814,1.56667 -4.0029,3.165 -5.7368,4.31751 -9.6848,7.18351 -16.9072,7.94142 -7.2601,-3.41001 -11.0164,-8.5859 -15.7811,-14.90582 -0.9825,-1.25562 -1.9651,-2.51124 -2.9776,-3.80491 -2.9448,-3.77594 -5.8502,-7.5792 -8.7462,-11.39265 -1.5505,-2.0248 -3.1017,-4.04893 -4.6542,-6.07225 -0.7109,-0.92801 -1.422,-1.85607 -2.1547,-2.81222 -6.781,-8.8491 -13.5971,-17.65658 -20.6553,-26.28704 -1.1574,-1.4632 -1.1574,-1.4632 -2.3382,-2.95598 -3.6568,-4.40446 -6.0322,-6.83637 -11.5771,-8.5236 -1.24703,-0.0806 -2.49418,-0.16119 -3.77903,-0.24425 -3.07944,4.59291 -6.15363,9.18936 -9.22705,13.78637 -0.9348,1.39484 -1.8695,2.7897 -2.83252,4.22681 -4.81386,7.20655 -9.56446,14.44109 -14.17656,21.77865 -0.84667,1.34013 -1.69352,2.68028 -2.56584,4.06103 -1.61343,2.56333 -3.21316,5.13532 -4.79753,7.71666 -0.73382,1.16213 -1.46746,2.32429 -2.22335,3.52164 -0.6313,1.01982 -1.2627,2.03966 -1.91314,3.0904 -2.68206,3.16329 -5.38044,4.46005 -9.15931,6.08241 -5.87199,-3.91464 -5.98579,-4.50575 -7.37492,-10.99788 -0.34364,-1.53255 -0.68738,-3.06508 -1.04141,-4.64407 -0.33927,-1.60866 -0.67834,-3.21734 -1.0279,-4.87475 -2.21383,-10.21936 -4.62203,-20.24287 -7.77523,-30.21872 -4.43893,-14.0924 -7.85102,-28.41319 -11.30772,-42.76901 -3.39811,-14.06684 -7.13518,-27.91549 -11.54683,-41.69952 -4.0643,-12.77018 -7.57028,-25.68171 -11.04176,-38.62364 -1.09692,-4.08576 -2.2048,-8.16844 -3.31389,-12.25092 -3.91979,-14.50342 -7.63199,-29.03268 -10.96909,-43.68214 -1.27474,-5.56856 -2.66373,-11.0537 -4.24586,-16.54454 -1.45344,-5.13918 -2.17101,-8.93772 -1.56684,-14.2244 1.14635,-1.14633 2.29268,-2.29266 3.47374,-3.47373 z"
     fill="#0e2c48"
     id="path8"
     style="stroke-width:1.73686" />
  <path
     d="m 479.67593,720.93684 c 4.75411,2.28745 9.15565,4.82186 13.56924,7.70733 6.27705,3.98056 12.52668,6.92827 19.43118,9.66131 -6.08281,12.97603 -13.24136,24.87507 -21.16804,36.7998 -1.15235,1.74845 -2.30469,3.49694 -3.49195,5.29836 -2.30021,3.48644 -4.60473,6.97 -6.91398,10.45045 -2.71557,4.09303 -5.4191,8.19354 -8.11608,12.29883 -27.45409,41.66768 -57.6117,81.7924 -90.57474,119.26013 -1.41277,1.60979 -2.82554,3.21959 -4.28112,4.87815 -10.16406,11.32017 -20.80746,22.16562 -31.52014,32.96431 -1.67593,1.69011 -3.34931,3.38277 -5.02009,5.07798 -2.36152,2.39243 -4.73653,4.77156 -7.11204,7.15009 -1.38827,1.39541 -2.77654,2.79082 -4.20688,4.22851 -3.43938,3.01746 -3.43938,3.01746 -6.91312,3.01746 -0.52614,-1.15304 -1.05229,-2.30608 -1.59438,-3.49408 -4.75499,-10.33924 -4.75499,-10.33924 -12.08341,-18.86803 -1.21797,-1.21798 -2.43595,-2.43596 -3.69083,-3.69083 0.39145,-6.77494 4.24891,-10.01888 8.9557,-14.55303 2.22387,-2.17161 2.22387,-2.17161 4.49268,-4.3871 2.37039,-2.28498 2.37039,-2.28498 4.78868,-4.61611 10.86577,-10.65315 21.32371,-21.13592 30.65973,-33.16324 3.34375,-4.24156 6.90969,-8.15269 10.59078,-12.10376 10.09189,-11.0923 18.98088,-23.09189 27.97725,-35.07312 2.69642,-3.58239 5.4131,-7.14826 8.13732,-10.70952 28.142,-36.92655 57.27033,-76.50608 78.08424,-118.13389 z"
     fill="#0f2b47"
     id="path9"
     style="stroke-width:1.73686" />
  <path
     d="m 846.37132,224.41087 c 14.49552,9.85929 23.68953,22.62045 27.57272,39.73075 2.38269,16.10796 -2.64819,31.08767 -12.04949,44.18148 -10.25997,12.49482 -23.28077,20.39115 -39.41188,22.73528 -19.41039,0.81623 -33.83968,-4.73786 -48.29976,-17.63324 -12.27005,-13.52527 -16.35639,-28.98745 -15.58427,-46.98352 2.00058,-16.21429 9.44677,-27.94968 21.55476,-38.77414 21.03092,-14.81559 43.91804,-15.89322 66.21792,-3.25661 z"
     fill="#176ded"
     id="path10"
     style="stroke-width:1.73686" />
  <path
     d="m 566.84478,618.95713 c 11.53973,7.84615 19.68737,19.22931 23.99045,32.50514 2.57246,20.37488 -0.62909,35.10635 -12.15806,52.10593 -8.18571,9.69071 -20.5136,16.72166 -33.00041,19.1055 -18.93773,1.31829 -33.88736,-0.52245 -48.89001,-12.62619 -10.89229,-10.17992 -18.07506,-21.63138 -19.33618,-36.58948 -0.47819,-18.68953 2.82921,-32.30345 15.89639,-46.32542 21.33183,-20.60936 48.16918,-23.05605 73.49782,-8.17548 z"
     fill="#176eee"
     id="path11"
     style="stroke-width:1.73686" />
  <path
     d="m 283.41031,957.15034 c 12.17317,8.18606 21.57341,18.90251 26.05296,33.00037 2.78815,17.97999 0.7981,34.84139 -9.11854,50.27419 -8.81522,11.5699 -22.20252,18.8285 -36.03992,22.6741 -16.64667,1.8168 -30.28552,-0.281 -44.1272,-9.8308 -11.7041,-9.4999 -20.02023,-20.861 -23.01344,-35.8093 -1.76305,-17.1696 0.0632,-30.3227 10.23798,-44.43933 19.47604,-23.62173 48.21094,-31.01187 76.00816,-15.86923 z"
     fill="#166ded"
     id="path12"
     style="stroke-width:1.73686" />
  <path
     d="m 1044.1568,719.19997 c 10.8841,9.84852 19.8143,23.22745 21.3783,38.09567 0.7202,19.57326 -4.8317,34.0981 -17.9047,48.74752 -4.1725,3.0056 -4.1725,3.0056 -8.5757,5.53626 -2.1729,1.27283 -2.1729,1.27283 -4.3896,2.57137 -13.9525,7.33099 -28.8554,8.08355 -44.21549,4.65427 -17.21968,-6.23012 -28.02012,-18.34428 -36.17562,-34.36415 -5.07304,-14.82246 -4.34611,-31.16524 2.27972,-45.26701 8.72567,-15.15305 19.1572,-24.0378 35.49709,-30.39512 18.4504,-4.91406 37.0028,-0.88162 52.106,10.42119 z"
     fill="#166ced"
     id="path13"
     style="stroke-width:1.73686" />
  <path
     d="m 1129.5618,989.90653 c 10.3885,11.09887 16.8843,24.85837 17.165,40.15827 -1.0067,17.9653 -5.7557,31.8202 -19.1395,44.2627 -15.8084,11.9247 -31.0523,14.2314 -50.4301,13.0876 -13.1062,-2.3418 -24.8838,-11.112 -32.7087,-21.6565 -9.9922,-16.1431 -13.9999,-32.0478 -9.5799,-50.9186 5.9553,-16.53646 17.951,-29.00785 33.6043,-36.84731 21.4208,-7.53377 43.8835,-2.81592 61.0889,11.91384 z"
     fill="#166ded"
     id="path14"
     style="stroke-width:1.73686" />
  <path
     d="m 665.52036,404.82761 c 1.14635,0 2.29267,0 3.47373,0 2.19143,2.67314 2.19143,2.67314 4.66784,6.29612 5.16784,7.1712 10.96974,12.59807 17.9114,18.01997 -1.14186,5.6914 -3.23585,10.05544 -6.11295,15.08222 -0.90536,1.59131 -1.81073,3.18262 -2.74352,4.82217 -0.98206,1.70662 -1.96412,3.41324 -2.97592,5.17157 -1.01787,1.785 -2.03573,3.56998 -3.08446,5.40906 -3.12443,5.47511 -6.26012,10.9436 -9.39925,16.4103 -3.40315,5.93325 -6.80464,11.86747 -10.20406,17.80284 -0.83933,1.46441 -1.67865,2.92882 -2.5434,4.43758 -8.23448,14.40433 -16.2784,28.91288 -24.31481,43.42838 -8.26907,14.92477 -16.63701,29.79085 -25.09803,44.60765 -5.03733,8.85805 -9.79402,17.77649 -14.2617,26.93581 -6.94478,-3.421 -13.47496,-7.3692 -20.08251,-11.39818 -3.66714,-2.16268 -7.34721,-4.12454 -11.18105,-5.97047 1.18348,-5.78243 3.33821,-10.49033 6.05189,-15.71996 1.34483,-2.59605 1.34483,-2.59605 2.71681,-5.24452 0.97519,-1.85832 1.9504,-3.71663 2.95514,-5.63125 1.01213,-1.93667 2.02427,-3.87334 3.06707,-5.8687 9.36323,-17.8026 19.22243,-35.29922 29.20738,-52.75809 4.01029,-7.05204 7.95446,-14.14021 11.90066,-21.22825 9.30467,-16.70511 18.72995,-33.33489 28.33894,-49.86699 0.97828,-1.68912 1.95656,-3.37824 2.96446,-5.11856 13.53101,-23.16921 13.53101,-23.16921 18.74634,-29.6187 z"
     fill="#0f2d4a"
     id="path15"
     style="stroke-width:1.73686" />
  <path
     d="m 1044.1568,830.35927 c 0.252,0.93012 0.5039,1.86026 0.7636,2.81859 15.7265,59.19965 15.7265,59.19965 34.7933,117.37613 0.9172,3.12262 0.9172,3.12262 0.9172,8.33321 -1.0724,0.17015 -2.1449,0.3403 -3.2498,0.51563 -10.7591,1.89962 -19.978,5.04284 -29.7507,9.90554 -14.6423,-32.10073 -23.8895,-66.10045 -32.0865,-100.30557 -0.2819,-1.17108 -0.5637,-2.34216 -0.8542,-3.54871 -0.7678,-3.20314 -1.5249,-6.40887 -2.2812,-9.61475 -0.7928,-4.4668 -0.7928,-4.4668 -2.989,-6.37457 -0.071,-3.473 -0.074,-6.94825 0,-10.42119 1.0925,-0.1903 2.1852,-0.38062 3.3109,-0.5767 9.945,-1.84222 21.709,-8.10761 31.4264,-8.10761 z"
     fill="#112e4a"
     id="path18"
     style="stroke-width:1.73686" />
  <path
     d="m 743.67925,304.0895 c 6.7886,2.26285 7.59886,4.99313 11.18105,11.07249 3.77996,6.40989 6.84338,10.91507 13.13504,14.98046 -2.68122,6.54576 -6.69775,10.30018 -11.8324,15.08899 -18.55314,17.91782 -33.39839,39.65956 -47.22098,61.33304 -6.85495,-2.30894 -10.95466,-5.11635 -15.95743,-10.31265 -1.17095,-1.19781 -2.34191,-2.39566 -3.54835,-3.62977 -3.07344,-3.42624 -3.07344,-3.42624 -6.54717,-8.63683 0.54713,-6.64178 2.69644,-10.78202 6.615,-16.07956 1.0029,-1.36391 2.0058,-2.72784 3.03909,-4.13311 1.07707,-1.42577 2.15414,-2.85154 3.26383,-4.32053 1.09835,-1.47167 2.19668,-2.94336 3.32828,-4.45962 8.47591,-11.22855 17.48139,-21.6014 27.1754,-31.79741 3.22788,-3.64971 6.4185,-7.32836 9.60023,-11.01823 2.49439,-2.80535 5.08667,-5.46159 7.76841,-8.08727 z"
     fill="#0e2b48"
     id="path23"
     style="stroke-width:1.73686" />
  <path
     d="m 998.99832,597.61949 c 1.14638,0 2.29268,0 3.47368,0 1.4287,7.22123 2.8486,14.4441 4.2617,21.66841 0.4794,2.44573 0.9611,4.89102 1.4451,7.33586 4.1501,20.97492 8.1882,41.58762 8.1882,63.04953 -17.19502,1.71949 -17.19502,1.71949 -34.73735,3.47373 -2.14123,-9.60081 -4.22163,-19.16045 -6.10708,-28.80667 -0.7038,-3.51201 -1.49147,-7.00707 -2.29915,-10.49666 -2.16329,-12.61654 0.72819,-19.64052 7.75481,-29.84557 2.36018,-3.24562 4.76381,-6.44908 7.20702,-9.63247 2.72705,-3.65269 5.04486,-7.49158 7.33926,-11.42701 1.71955,-2.63297 1.71955,-2.63297 3.47381,-5.31915 z"
     fill="#132f4b"
     id="path24"
     style="stroke-width:1.73686" />
  <path
     d="m 886.10209,300.61577 c 1.14632,0 2.29266,0 3.47373,0 0,1.14632 0,2.29266 0,3.47373 0.98064,0.403 1.96129,0.80602 2.97166,1.22122 21.93387,12.42665 39.09279,44.22937 49.13423,66.51647 -5.94002,-2.26701 -11.46118,-4.85494 -17.02258,-7.93123 -1.55493,-0.84295 -3.10985,-1.68592 -4.71191,-2.55441 -3.22803,-1.75928 -6.44852,-3.53225 -9.66133,-5.31914 -10.14827,-5.48968 -10.14827,-5.48968 -21.32748,-7.73788 -7.6903,-0.93964 -9.90562,-3.03038 -15.01437,-8.69788 -1.32544,-1.43516 -2.65089,-2.8703 -4.01649,-4.34895 -0.96722,-1.10827 -1.93444,-2.21653 -2.93096,-3.35839 2.36165,-5.08492 5.10684,-9.28205 8.57576,-13.6778 4.28254,-5.59137 7.62771,-11.13678 10.52974,-17.58574 z"
     fill="#0e2b47"
     id="path25"
     style="stroke-width:1.73686" />
  <path
     d="m 623.83563,236.35179 c 0.57317,0 1.14633,0 1.73687,0 -0.57317,9.74382 -1.14634,19.48762 -1.73687,29.52671 -4.94439,2.47218 -8.93817,1.75002 -14.45124,1.52653 -2.18296,-0.0838 -4.3659,-0.16792 -6.61501,-0.25442 -2.29042,-0.0974 -4.58085,-0.19479 -6.94067,-0.29514 -2.32709,-0.0923 -4.65423,-0.18405 -6.98138,-0.27478 -5.70627,-0.22578 -11.41202,-0.46022 -17.11761,-0.70219 0,-0.57318 0,-1.14635 0,-1.73688 16.04862,0 32.09725,0 48.63219,0 0,-5.15848 0,-10.31697 0,-15.63177 1.73686,-7.05601 1.73686,-7.05601 3.47372,-12.15806 z"
     fill="#4a8df0"
     id="path27"
     style="stroke-width:1.73686" />
  <path
     d="m 1073.6833,938.04483 c 3.3056,4.95836 4.2762,7.67591 5.4279,13.35212 0.291,1.40381 0.5821,2.80762 0.882,4.25397 0.2104,1.06797 0.4209,2.13594 0.6377,3.23628 -1.1329,0.1903 -2.2658,0.38061 -3.433,0.57668 -9.0427,1.64049 -16.1335,3.89568 -24.3567,8.10763 -1.7196,-0.57316 -3.4391,-1.14632 -5.2108,-1.73687 4.6549,-3.1032 8.7388,-5.09285 13.895,-7.16455 1.5046,-0.61347 3.0091,-1.22694 4.5592,-1.85899 4.1252,-1.39762 4.1252,-1.39762 9.3357,-1.39762 -0.2708,-1.10829 -0.5418,-2.21654 -0.8208,-3.3584 -0.3382,-1.43515 -0.6762,-2.87031 -1.0246,-4.34894 -0.3426,-1.4307 -0.6851,-2.86136 -1.0379,-4.33538 -0.195,-1.1844 -0.3897,-2.36878 -0.5903,-3.58907 0.573,-0.57317 1.1462,-1.14633 1.7366,-1.73686 z"
     fill="#23314b"
     id="path28"
     style="stroke-width:1.73686" />
  <path
     d="m 929.52363,350.98483 c 5.81903,6.62152 8.97912,12.73616 12.15808,20.84236 -6.58445,-2.51761 -12.83098,-5.47413 -19.10541,-8.68432 0,-1.71949 0,-3.43899 0,-5.21059 1.71947,0 3.43893,0 5.21048,0 0.57318,-2.29267 1.14637,-4.58534 1.73685,-6.94745 z"
     fill="#1e3555"
     id="path29"
     style="stroke-width:1.73686" />
  <path
     d="m 569.99286,623.67247 c 6.16526,2.49546 8.80742,5.40688 12.37515,10.96394 0.86423,1.31874 1.72846,2.63746 2.61886,3.99615 6.1795,10.78762 6.1795,10.78762 5.19704,16.84622 -0.53734,1.45081 -0.53734,1.45081 -1.08557,2.93095 -3.83014,-3.83016 -4.40341,-5.85928 -5.8619,-10.96395 -2.16598,-6.82782 -4.71269,-11.60555 -9.76986,-16.82587 -1.14632,-0.57317 -2.29266,-1.14634 -3.47372,-1.73687 0,-1.71949 0,-3.43898 0,-5.21057 z"
     fill="#2c76ed"
     id="path31"
     style="stroke-width:1.73686" />
  <path
     d="m 326.83191,931.09737 c 0,5.21059 0,5.21059 -3.41946,9.13888 -1.45082,1.39039 -2.90164,2.78075 -4.39643,4.21326 -1.45082,1.40381 -2.90165,2.80762 -4.39644,4.25396 -1.12842,1.06797 -2.25683,2.13593 -3.41944,3.23626 0,-5.62449 0.50707,-7.49615 3.47371,-12.15804 3.91646,-3.42689 7.50114,-6.35586 12.15806,-8.68432 z"
     fill="#1e3553"
     id="path32"
     style="stroke-width:1.73686" />
  <path
     d="m 827.04871,218.98317 c -5.11037,1.70346 -8.66847,2.02323 -14.00346,2.06252 -2.28706,0.0369 -2.28706,0.0369 -4.62032,0.0746 -3.95544,-0.40029 -3.95544,-0.40029 -7.42918,-3.87401 8.81081,-2.93694 18.24972,-3.46531 26.05296,1.73687 z"
     fill="#2b78f1"
     id="path34"
     style="stroke-width:1.73686" />
  <path
     d="m 886.10209,300.61577 c 1.14632,0 2.29266,0 3.47373,0 0,1.14632 0,2.29266 0,3.47373 1.54486,0.66495 1.54486,0.66495 3.12092,1.34336 4.19518,2.33559 6.45284,4.72201 9.47131,8.42649 0.90458,1.09707 1.80904,2.19414 2.74099,3.32448 1.00758,1.25603 1.00758,1.25603 2.03544,2.53745 -1.7195,0.85974 -1.7195,0.85974 -3.47379,1.73687 -1.25604,-1.50457 -1.25604,-1.50457 -2.53746,-3.03953 -1.09702,-1.28962 -2.19414,-2.57925 -3.32439,-3.90794 -1.08813,-1.28963 -2.17627,-2.57925 -3.29735,-3.90796 -0.98961,-1.00303 -1.97921,-2.00606 -2.99881,-3.0395 -1.14632,0 -2.29267,0 -3.47372,0 -0.57317,1.14633 -1.14634,2.29267 -1.73687,3.47373 -1.14633,0 -2.29267,0 -3.47373,0 1.14633,-3.43899 2.29266,-6.87798 3.47373,-10.42118 z"
     fill="#27304a"
     id="path35"
     style="stroke-width:1.73686" />
  <path
     d="m 882.62836,366.61659 c 9.98698,1.30266 9.98698,1.30266 13.89495,5.2106 -2.04193,1.18215 -2.04193,1.18215 -4.12509,2.3882 -4.6235,2.62141 -4.6235,2.62141 -8.033,6.29611 -1.03748,-4.79833 -1.73686,-8.96277 -1.73686,-13.89491 z"
     fill="#223b58"
     id="path36"
     style="stroke-width:1.73686" />
  <path
     d="m 394.5696,906.78128 c 1.14634,0 2.29266,0 3.47372,0 0,1.14633 0,2.29265 0,3.47373 -1.14633,0 -2.29267,0 -3.47372,0 -0.39406,0.96721 -0.78811,1.93442 -1.19409,2.93095 -2.95038,5.19829 -6.48412,8.7673 -10.96395,12.70081 -1.71951,0 -3.43898,0 -5.21061,0 2.81111,-3.19489 5.63473,-6.37692 8.46722,-9.55274 0.7993,-0.91125 1.59859,-1.8225 2.42211,-2.76134 2.08804,-2.33014 4.27778,-4.56821 6.47932,-6.79141 z"
     fill="#e4e6eb"
     id="path39"
     style="stroke-width:1.73686" />
  <path
     d="m 997.26137,564.61908 c 4.12513,0.54278 4.12513,0.54278 8.68433,1.73686 1.1464,1.7195 2.2927,3.439 3.4738,5.2106 -5.3303,2.66513 -9.90184,0.955 -15.63185,0 1.14637,-2.29267 2.29275,-4.58531 3.47372,-6.94746 z"
     fill="#eaecf0"
     id="path40"
     style="stroke-width:1.73686" />
  <path
     d="m 929.52363,147.77174 c 5.57607,2.40015 8.77009,5.07897 12.59229,9.76987 1.35677,1.6456 1.35677,1.6456 2.74105,3.32445 1.0075,1.25604 1.0075,1.25604 2.0353,2.53746 -5.21056,0 -5.21056,0 -8.37892,-2.53746 -1.06795,-1.09706 -2.13599,-2.19414 -3.2363,-3.32445 -1.08135,-1.08812 -2.1628,-2.17625 -3.277,-3.29734 -2.47642,-2.9988 -2.47642,-2.9988 -2.47642,-6.47253 z"
     fill="#266fe9"
     id="path41"
     style="stroke-width:1.73686" />
  <path
     d="m 580.41404,552.46103 c 1.76627,4.61136 1.96303,6.41173 0.006,11.04538 -0.82618,1.37022 -1.65234,2.74044 -2.50355,4.15218 -0.82169,1.38815 -1.64335,2.77627 -2.48995,4.20648 -0.64704,1.04782 -1.29411,2.09562 -1.96074,3.1752 -1.14634,0 -2.29266,0 -3.47373,0 2.45405,-8.38467 5.95697,-15.13892 10.42117,-22.57924 z"
     fill="#29334e"
     id="path42"
     style="stroke-width:1.73686" />
  <path
     d="m 870.47031,324.93186 c 0.57317,1.14634 1.14633,2.29267 1.73687,3.47372 -0.57316,1.14633 -1.14633,2.29268 -1.73687,3.47373 1.03887,0.42987 2.07774,0.85975 3.14807,1.30265 4.29695,2.45541 6.28954,5.03787 9.00998,9.11853 -5.21059,0 -5.21059,0 -7.99908,-2.27963 -0.90676,-0.96721 -1.81353,-1.93443 -2.74776,-2.93096 -0.92021,-0.9672 -1.84041,-1.93442 -2.7885,-2.93095 -0.69181,-0.75228 -1.38364,-1.50455 -2.09643,-2.27964 1.14632,-2.29265 2.29266,-4.58531 3.47372,-6.94745 z"
     fill="#2b3a54"
     id="path43"
     style="stroke-width:1.73686" />
  <path
     d="m 993.78765,423.93312 c 7.81235,2.92962 15.16095,6.62914 22.57935,10.42116 -5.6823,1.85719 -6.5829,1.90463 -12.3753,-0.75988 -1.6477,-0.89556 -3.2956,-1.79114 -4.99338,-2.71383 -1.14637,0 -2.29265,0 -3.47381,0 -0.57318,-2.29266 -1.14627,-4.58534 -1.73686,-6.94745 z"
     fill="#202f4d"
     id="path45"
     style="stroke-width:1.73686" />
  <path
     d="m 971.20842,373.56406 c 1.68361,0.28657 3.36739,0.57315 5.10201,0.86842 5.7234,1.24235 5.7234,1.24235 10.52981,-0.86842 -0.54277,3.36516 -0.54277,3.36516 -1.73688,6.94744 -5.21066,1.73686 -5.21066,1.73686 -9.87847,-0.54277 -1.32547,-0.96721 -2.65085,-1.93442 -4.01647,-2.93095 0,-1.14634 0,-2.29265 0,-3.47372 z"
     fill="#1664e6"
     id="path46"
     style="stroke-width:1.73686" />
  <path
     d="m 834.43038,79.816941 c 5.36004,0.178667 10.01171,0.696795 15.19757,1.953973 0,0.573165 0,1.146331 0,1.736863 -2.45651,0.388422 -4.91824,0.743838 -7.38167,1.085541 -1.37023,0.201502 -2.74045,0.403006 -4.1522,0.610615 -4.65636,0.04626 -7.09737,-1.060602 -11.04537,-3.433019 1.73687,-1.736864 1.73687,-1.736864 7.38167,-1.953973 z"
     fill="#4086ef"
     id="path47"
     style="stroke-width:1.73686" />
  <path
     d="m 590.83523,533.35555 c 1.30263,2.71383 1.30263,2.71383 1.73687,6.94743 -1.96414,4.34714 -4.37933,8.11129 -6.94747,12.15805 -1.14634,0 -2.29265,0 -3.47373,0 2.5176,-6.58447 5.47412,-12.83102 8.68433,-19.10548 z"
     fill="#272f48"
     id="path48"
     style="stroke-width:1.73686" />
  <path
     d="m 1047.6304,524.67121 c 1.7195,0 3.4391,0 5.2108,0 -1.1464,3.43898 -2.2927,6.878 -3.4738,10.4212 -1.7196,0 -3.439,0 -5.2106,0 1.5197,-8.46723 1.5197,-8.46723 3.4736,-10.4212 z"
     fill="#dcdfe4"
     id="path49"
     style="stroke-width:1.73686" />
  <path
     d="m 672.46783,410.03819 c 6.59177,2.58962 9.74454,6.52541 13.89491,12.15805 -5.2106,0 -5.2106,0 -9.87841,-4.12505 -4.0165,-4.55927 -4.0165,-4.55927 -4.0165,-8.033 z"
     fill="#146bdf"
     id="path51"
     style="stroke-width:1.73686" />
  <path
     d="m 931.26058,356.19542 c 5.35109,4.81598 8.14199,8.7942 10.42113,15.63177 -4.23359,-1.19409 -4.23359,-1.19409 -8.68428,-3.47373 -1.38796,-4.27068 -1.73685,-7.69588 -1.73685,-12.15804 z"
     fill="#27324d"
     id="path52"
     style="stroke-width:1.73686" />
  <path
     d="m 1052.8412,797.35886 c 1.1462,0.57316 2.2926,1.14632 3.4736,1.73686 -2.0625,4.2336 -2.0625,4.2336 -5.2105,8.68431 -4.6679,1.41122 -4.6679,1.41122 -8.6844,1.73686 3.439,-4.01214 6.8781,-8.02432 10.4213,-12.15803 z"
     fill="#e0ecfc"
     id="path53"
     style="stroke-width:1.73686" />
  <path
     d="m 1014.63,675.77837 c 0.5732,0 1.1464,0 1.737,0 0,4.58532 0,9.17064 0,13.89492 -4.5853,0 -9.1707,0 -13.895,0 0,-0.57318 0,-1.14634 0,-1.73687 3.439,-1.14634 6.878,-2.29265 10.4212,-3.47373 0.5732,-2.86582 1.1463,-5.73165 1.7368,-8.68432 z"
     fill="#303c56"
     id="path54"
     style="stroke-width:1.73686" />
  <path
     d="m 599.51954,517.72376 c 1.1941,2.93095 1.1941,2.93095 1.73686,6.94745 -2.27963,4.77637 -2.27963,4.77637 -5.21058,8.68434 -1.14634,0 -2.29266,0 -3.47372,0 2.08247,-5.35501 4.30221,-10.53027 6.94744,-15.63179 z"
     fill="#27324a"
     id="path55"
     style="stroke-width:1.73686" />
  <path
     d="m 830.52245,436.09115 c 1.14632,0.57316 2.29265,1.14633 3.47373,1.73686 0,2.29267 0,4.58533 0,6.94746 1.14632,0.57317 2.29265,1.14634 3.47372,1.73687 -2.86582,0 -5.73165,0 -8.68432,0 -0.0742,-2.89383 -0.0706,-5.79041 0,-8.68433 0.57317,-0.57315 1.14633,-1.14631 1.73687,-1.73686 z"
     fill="#f1f7fd"
     id="path56"
     style="stroke-width:1.73686" />
  <path
     d="m 945.15542,397.88015 c 6.58453,2.51759 12.83106,5.47412 19.10559,8.68433 -5.21066,1.73685 -5.21066,1.73685 -8.75901,0.38671 -1.22917,-0.66496 -2.45834,-1.32992 -3.72473,-2.01502 -1.24258,-0.6605 -2.48527,-1.32097 -3.76555,-2.00149 -0.94257,-0.52166 -1.88506,-1.04333 -2.8563,-1.5808 0,-1.14633 0,-2.29267 0,-3.47373 z"
     fill="#212d4c"
     id="path57"
     style="stroke-width:1.73686" />
  <path
     d="m 656.83605,213.77258 c 1.73686,3.47372 1.73686,3.47372 0.76666,6.85246 -0.50375,1.24932 -1.00751,2.49865 -1.52654,3.78583 -0.49928,1.25826 -0.99856,2.51654 -1.51297,3.81296 -0.3963,0.96272 -0.79258,1.92547 -1.20088,2.91738 -0.57315,0 -1.14632,0 -1.73686,0 0.19735,-2.5707 0.41898,-5.13956 0.65132,-7.70734 0.12092,-1.43067 0.24181,-2.86134 0.36637,-4.33536 0.23734,-1.1844 0.47466,-2.3688 0.71917,-3.58907 1.14634,-0.57318 2.29266,-1.14634 3.47373,-1.73686 z"
     fill="#3881f2"
     id="path58"
     style="stroke-width:1.73686" />
  <path
     d="m 800.99575,107.82387 c 0,0.57316 0,1.14633 0,1.73686 -1.68366,0.21494 -3.36733,0.42987 -5.10203,0.65132 -2.63297,0.53735 -2.63297,0.53735 -5.31915,1.08555 -0.57317,1.14632 -1.14631,2.29266 -1.73686,3.47372 -5.21059,-1.73686 -5.21059,-1.73686 -8.68431,-5.21059 6.91511,-2.30503 13.63516,-1.85698 20.84235,-1.73686 z"
     fill="#bfd8f9"
     id="path59"
     style="stroke-width:1.73686" />
  <path
     d="m 1009.4195,839.04358 c 5.1585,0 10.317,0 15.6318,0 -6.9474,3.47373 -6.9474,3.47373 -12.1581,3.47373 -0.5732,1.7195 -1.1463,3.43899 -1.7369,5.21061 -0.5732,-2.86585 -1.1463,-5.73166 -1.7368,-8.68434 z"
     fill="#091634"
     id="path60"
     style="stroke-width:1.73686" />
  <path
     d="m 998.99832,597.61949 c 1.14638,0 2.29268,0 3.47368,0 0,1.7195 0,3.43898 0,5.21059 -1.1464,0 -2.2926,0 -3.47368,0 0,2.29267 0,4.58534 0,6.94747 -2.29265,-0.57318 -4.58529,-1.14633 -6.94752,-1.73687 2.21266,-3.5403 4.53427,-7.01437 6.94752,-10.42119 z"
     fill="#232e47"
     id="path61"
     style="stroke-width:1.73686" />
</svg>
