<?xml version="1.0" encoding="UTF-8" standalone="no"?>
<svg
   version="1.1"
   id="Layer_1"
   x="0px"
   y="0px"
   width="562"
   viewBox="0 0 562 562"
   enable-background="new 0 0 1024 1024"
   xml:space="preserve"
   sodipodi:docname="Digitize.svg"
   inkscape:version="1.3.2 (091e20e, 2023-11-25)"
   height="562"
   inkscape:export-filename="Digitize.png"
   inkscape:export-xdpi="2.7330961"
   inkscape:export-ydpi="2.7330961"
   xmlns:inkscape="http://www.inkscape.org/namespaces/inkscape"
   xmlns:sodipodi="http://sodipodi.sourceforge.net/DTD/sodipodi-0.dtd"
   xmlns="http://www.w3.org/2000/svg"
   xmlns:svg="http://www.w3.org/2000/svg"><defs
   id="defs145" /><sodipodi:namedview
   id="namedview145"
   pagecolor="#ffffff"
   bordercolor="#000000"
   borderopacity="0.25"
   inkscape:showpageshadow="2"
   inkscape:pageopacity="0.0"
   inkscape:pagecheckerboard="0"
   inkscape:deskcolor="#d1d1d1"
   inkscape:zoom="0.65186406"
   inkscape:cx="843.73419"
   inkscape:cy="517.74598"
   inkscape:window-width="1920"
   inkscape:window-height="1022"
   inkscape:window-x="0"
   inkscape:window-y="30"
   inkscape:window-maximized="1"
   inkscape:current-layer="Layer_1" />
<rect
   style="fill:#ffffff;fill-opacity:1;stroke:#969696;stroke-width:17.6649;stroke-linejoin:round;stroke-miterlimit:4;stroke-dasharray:none;stroke-opacity:1"
   id="rect4828"
   width="544.33514"
   height="544.33514"
   x="8.8324213"
   y="8.8324499"
   rx="35.118401"
   ry="35.118389" /><path
   fill="#252634"
   opacity="1"
   stroke="none"
   d="m 464.98532,310.16811 c 39.49485,20.81787 78.67132,41.46637 117.81591,62.18304 4.76658,2.52271 9.56655,5.09473 13.93788,8.28113 1.85488,1.35217 3.70381,4.39795 3.61507,6.58545 -0.0868,2.1466 -2.24447,5.34527 -4.16989,6.07495 -12.24512,4.64099 -24.68178,8.71265 -37.0464,13.00079 -5.47211,1.89771 -10.92356,3.86316 -16.29259,5.76544 18.27545,21.21668 36.28796,42.23743 54.43685,63.12507 4.859,5.59222 4.96434,8.43219 -0.40733,13.61694 -10.32715,9.9679 -20.65883,19.93042 -30.97316,29.91327 -4.30739,4.16894 -7.32604,4.11566 -11.15528,-0.54419 -18.13964,-22.07404 -36.23609,-44.18793 -54.36064,-66.27588 -0.17683,-0.21533 -0.5255,-0.27203 -0.64678,-0.33112 -6.75066,13.28974 -13.46199,26.56617 -20.23982,39.80439 -1.94465,3.79821 -4.12603,7.45929 -6.11746,11.23163 -1.92193,3.64086 -4.08746,6.84832 -8.6658,6.25329 -4.45574,-0.5791 -5.50833,-4.302 -6.56535,-8.06946 -10.95091,-39.02948 -22.27633,-77.94568 -32.77654,-117.11071 -7.9283,-29.57209 -14.89229,-59.43757 -22.01396,-89.24549 -0.63442,-2.65555 -0.20107,-7.11053 1.42001,-8.46609 1.90835,-1.59577 6.11238,-1.84534 8.52754,-0.73624 15.38629,7.06561 30.55387,14.66672 45.79359,22.09119 1.85176,0.90213 3.70409,1.80267 5.88415,2.8526 z"
   id="path3"
   style="stroke-width:0.97113" /><path
   fill="#f79122"
   opacity="1"
   stroke="none"
   d="m 162.77173,331.72456 c 18.33664,-20.0946 31.01953,-44.43933 45.18797,-67.66198 5.85807,-9.60157 11.52258,-19.33594 17.70274,-29.17011 4.71625,5.27924 10.56533,7.53998 16.85362,8.90613 -1.80073,3.46097 -3.40847,7.05481 -5.43309,10.36166 -14.69272,23.99787 -29.19856,48.1333 -44.37586,71.78348 -4.89218,7.62329 -11.62137,13.92121 -18.02506,20.6897 -4.3133,-5.06006 -8.11181,-9.9845 -11.91032,-14.90888 z"
   id="path8"
   style="stroke-width:0.97113" /><path
   fill="#262e41"
   opacity="1"
   stroke="none"
   d="m 162.4227,331.6537 c 4.14754,4.99524 7.94605,9.91968 11.97828,15.17291 4.20308,19.01215 -4.72243,34.31452 -21.46697,36.88031 -9.1283,1.39875 -16.93846,-1.83276 -23.30221,-9.99267 -2.28886,-6.54932 -4.24559,-12.53406 -6.20232,-18.5188 0.62432,-18.89111 17.09849,-31.03308 34.21219,-25.20923 1.48545,0.5055 2.95505,1.06323 4.78103,1.66748 m -6.41152,34.8515 c 3.96932,-3.38073 6.00551,-7.55157 4.73682,-13.06524 -1.39504,-6.06293 -5.79424,-8.42896 -10.92397,-9.51917 -5.61452,-1.19342 -12.97651,6.35645 -12.04358,12.29663 1.61073,10.25592 9.36215,15.43964 18.23073,10.28778 z"
   id="path10"
   style="stroke-width:0.97113" /><path
   fill="#262635"
   opacity="1"
   stroke="none"
   d="m 327.92923,142.87657 c 1.17553,-9.15097 4.68058,-16.80957 12.33567,-21.86606 11.58599,-7.65298 26.33948,-5.21557 34.27543,5.69858 8.57384,11.79132 7.51173,28.30197 -2.44158,37.95368 -10.41316,10.09759 -25.51615,10.13784 -35.82789,0.0848 -0.69074,-0.67334 -1.31662,-1.42138 -2.35094,-2.62676 -4.0333,-6.14243 -5.89767,-12.39533 -5.99069,-19.24427 m 15.48764,-0.61883 c -1.37578,6.4414 1.37947,12.43921 6.49764,14.14453 6.91575,2.30417 13.31577,-0.69333 15.36709,-7.19745 2.27031,-7.19837 -1.07079,-13.99399 -8.03609,-16.34546 -7.15216,-2.41455 -12.43415,0.86694 -13.82864,9.39838 z"
   id="path11"
   style="stroke-width:0.97113" /><path
   fill="#262635"
   opacity="1"
   stroke="none"
   d="m 242.83933,243.70043 c -6.61156,-1.26798 -12.46064,-3.52872 -17.00841,-9.10444 -8.90921,-10.8349 -9.12481,-25.15112 -0.80307,-36.25247 7.18197,-9.58087 21.06386,-12.11337 33.0814,-5.58185 6.43403,3.82425 9.35172,9.76856 11.99404,15.9408 0.002,4.60184 0.72591,9.36124 -0.12977,13.77628 -2.66388,13.74438 -12.42489,21.15347 -27.13419,21.22168 m 9.37881,-17.14945 c 4.03264,-3.72855 5.37311,-15.15262 1.66547,-18.98309 -1.5844,-1.63687 -4.64548,-1.8274 -7.09856,-2.32767 -6.89769,-1.40659 -11.69634,1.7215 -13.06208,8.3096 -1.33172,6.42395 2.14098,13.00403 8.3473,14.32996 3.0003,0.64099 6.34251,-0.51731 10.14787,-1.3288 z"
   id="path12"
   style="stroke-width:0.97113" /><path
   fill="#f68827"
   opacity="1"
   stroke="none"
   d="m 270.40598,208.49776 c -2.94501,-5.96753 -5.8627,-11.91184 -11.95505,-15.63727 12.57799,-16.19287 28.03081,-28.59952 45.27714,-38.45383 7.55911,-4.31918 15.63555,-7.62036 23.83909,-11.45694 0.45509,6.77579 2.31946,13.02869 6.07381,19.01288 -24.18593,10.62064 -45.1336,26.04968 -63.23499,46.53516 z"
   id="path14"
   style="stroke-width:0.97113" /><path
   fill="#fb9d25"
   opacity="1"
   stroke="none"
   d="m 473.87614,224.30379 c -1.42482,1.01635 -2.72959,2.16818 -4.04521,2.18222 -9.58173,0.10229 -19.16771,-0.16107 -28.74821,-0.0122 -3.91139,0.0607 -5.29792,-1.48663 -5.21512,-5.58112 0.2021,-9.9916 0.23747,-19.99163 0.0915,-29.98419 -0.0575,-3.90573 1.29854,-5.3685 4.95558,-5.30856 9.42461,0.15451 18.85554,0.20254 28.27836,0.001 3.79077,-0.0809 4.96275,1.54959 4.91314,5.327 -0.14429,10.99316 -0.0905,21.98923 -0.23011,33.37549 z"
   id="path15"
   style="stroke-width:0.97113" /><path
   fill="#1692ca"
   opacity="1"
   stroke="none"
   d="m 123.00965,355.23964 c 2.37656,5.94055 4.33329,11.92529 6.39792,18.23779 -11.96409,4.39917 -23.99601,3.54315 -35.87024,-0.42047 -11.822653,-3.94641 -22.415844,-10.14374 -30.790776,-20.57843 -0.35349,-12.93945 -0.458183,-25.70099 -0.466944,-38.9386 2.327025,4.05829 4.468234,8.64539 6.805105,13.11756 9.217492,17.64007 23.566135,27.14648 42.268465,29.3164 3.67777,0.4267 7.48767,-0.42688 11.65647,-0.73425 z"
   id="path16"
   style="stroke-width:0.97113" /><path
   fill="#81b645"
   opacity="1"
   stroke="none"
   d="m 521.43982,107.32057 c -0.009,-3.99231 0.0594,-7.49002 -0.049,-10.98153 -0.10233,-3.2912 1.10078,-4.96366 4.37312,-4.93528 9.88786,0.0857 19.77666,0.0999 29.6649,0.0631 2.61397,-0.01 3.62478,1.17835 3.60186,3.92566 -0.0877,10.48429 -0.11581,20.97 -0.0471,31.45432 0.0208,3.23047 -1.359,4.50284 -4.25976,4.4949 -9.73122,-0.0266 -19.46318,-0.064 -29.19355,0.0411 -3.13493,0.0339 -4.13188,-1.54492 -4.09906,-4.59223 0.0679,-6.32345 0.0141,-12.64843 0.009,-19.47009 z"
   id="path17"
   style="stroke-width:0.97113" /><path
   fill="#fb9d25"
   opacity="1"
   stroke="none"
   d="m 379.53372,297.24574 c 0.50059,6.40079 1.00109,12.31494 1.57996,19.15558 -4.22175,0 -7.9101,-0.003 -11.59853,6.7e-4 -7.2075,0.008 -14.41735,-0.09 -21.62158,0.0796 -3.33761,0.0786 -4.8615,-1.00256 -4.78477,-4.8219 0.19692,-9.79843 -0.0119,-19.60739 0.27463,-29.40115 0.0463,-1.58325 1.78199,-4.4437 2.76786,-4.45892 10.95379,-0.16944 21.91385,0.10019 32.87175,0.28003 0.44363,0.007 0.88311,0.30059 1.61749,0.56689 -0.3662,5.99158 -0.73655,12.05203 -1.10681,18.59921 z"
   id="path18"
   style="stroke-width:0.97113" /><path
   fill="#fb9d25"
   opacity="1"
   stroke="none"
   d="m 574.94696,167.73427 c -0.64649,-2.54907 -1.21536,-4.81531 -1.22498,-7.0842 -0.034,-7.99252 0.20173,-15.9863 0.17023,-23.97885 -0.0123,-3.12109 0.95752,-4.54886 4.08944,-4.513 10.20964,0.11688 20.42202,0.11191 30.63167,-0.006 3.06062,-0.0354 4.23911,1.26929 4.20996,4.43338 -0.083,8.99393 -0.0969,17.9896 -0.0236,26.98352 0.0255,3.08759 -1.07202,4.71991 -4.09265,4.69443 -11.1417,-0.0939 -22.28369,-0.16669 -33.75972,-0.52902 z"
   id="path19"
   style="stroke-width:0.97113" /><path
   fill="#f99228"
   opacity="1"
   stroke="none"
   d="m 625.72838,258.59102 c -0.017,8.1297 -0.11251,15.79227 -0.009,23.45172 0.05,3.57205 -1.1832,5.13699 -4.69707,5.07861 -9.26533,-0.15399 -18.5348,-0.12231 -27.80173,-0.0429 -3.11655,0.0267 -4.61267,-1.09205 -4.53232,-4.65644 0.19136,-8.4902 0.23511,-16.9873 0.15788,-25.47976 -0.0349,-3.81 1.28024,-5.35151 5.01527,-5.27231 8.63506,0.1831 17.27709,0.0119 25.9162,-0.0351 5.93526,-0.0322 5.93517,-0.0468 5.94818,6.95615 z"
   id="path20"
   style="stroke-width:0.97113" /><path
   fill="#1999d1"
   opacity="1"
   stroke="none"
   d="m 451.61773,94.95576 c 0.26557,4.14411 -1.47132,5.49586 -4.7961,5.46238 -9.71971,-0.0979 -19.44187,-0.16175 -29.16035,-0.0217 -3.18879,0.0459 -4.06718,-1.37567 -4.03625,-4.4809 0.0877,-8.809572 0.11289,-17.624112 -0.082,-26.430572 -0.0811,-3.64679 1.40446,-4.54129 4.52119,-4.48322 9.56136,0.17814 19.128,0.27073 28.68908,0.12803 3.80906,-0.0569 4.93493,1.74701 4.88843,5.42221 -0.10091,7.97818 -0.0274,15.9588 -0.0236,24.403802 z"
   id="path21"
   style="stroke-width:0.97113" /><path
   fill="#f27926"
   opacity="1"
   stroke="none"
   d="m 523.03761,246.25148 c -8.74946,-0.0126 -17.05896,-0.18243 -25.3594,0.0365 -3.7901,0.0999 -5.44967,-1.12271 -5.35262,-5.34412 0.19843,-8.63604 0.15542,-17.28067 0.0764,-25.92038 -0.0292,-3.18835 1.18302,-4.4978 4.18884,-4.47 9.24524,0.0856 18.49236,0.10071 27.73722,-0.005 3.03007,-0.0348 4.17838,1.19486 4.13782,4.42746 -0.10845,8.63867 -0.16957,17.28668 0.10337,25.91843 0.13146,4.15551 -1.13087,5.97921 -5.53172,5.35754 z"
   id="path22"
   style="stroke-width:0.97113" /><path
   fill="#f99228"
   opacity="1"
   stroke="none"
   d="m 380.2434,186.5508 c -0.009,-7.32651 -0.009,-7.31928 6.58618,-7.31418 8.15352,0.006 16.30939,0.11658 24.4596,-0.0579 3.45907,-0.074 4.7678,1.26065 4.69462,4.94302 -0.16844,8.47577 -0.18022,16.95938 -0.0387,25.43573 0.0623,3.72092 -1.35569,4.97653 -4.76252,4.91638 -8.77822,-0.15503 -17.56379,-0.20395 -26.33965,0.0133 -3.62176,0.0897 -4.67378,-1.51688 -4.62352,-5.02265 0.10733,-7.47985 0.0264,-14.9628 0.0236,-22.91372 z"
   id="path23"
   style="stroke-width:0.97113" /><path
   fill="#f99228"
   opacity="1"
   stroke="none"
   d="m 311.24695,208.72369 c -0.008,-7.32651 -0.008,-7.31928 6.58622,-7.31418 8.15352,0.006 16.30934,0.11658 24.45958,-0.0579 3.45907,-0.074 4.76785,1.26065 4.69464,4.94302 -0.16849,8.47577 -0.18029,16.95938 -0.0388,25.43573 0.0622,3.72092 -1.3557,4.97653 -4.7625,4.91638 -8.77824,-0.15503 -17.56384,-0.20395 -26.33966,0.0133 -3.6218,0.0897 -4.67386,-1.51688 -4.62354,-5.02265 0.10729,-7.47985 0.0268,-14.9628 0.024,-22.91372 z"
   id="path23-3"
   style="stroke-width:0.97113" /><path
   fill="#fb9d25"
   opacity="1"
   stroke="none"
   d="m 310.1364,288.17787 c 4.07696,-0.0416 7.70828,0.16904 11.29024,-0.18396 3.44507,-0.33945 4.58013,1.39578 4.59343,4.56784 0.0371,8.82041 -0.0142,17.64136 0.0537,26.4614 0.0241,3.13861 -1.22848,4.55438 -4.22746,4.5213 -8.632,-0.0953 -17.27106,0.0779 -25.89117,-0.28577 -1.29419,-0.0546 -3.54054,-2.38733 -3.58162,-3.72717 -0.28029,-9.14227 -0.0641,-18.30087 -0.0627,-27.45419 4.5e-4,-3.06851 1.48057,-3.99912 4.17492,-3.91944 4.39134,0.12992 8.78872,0.0292 13.65074,0.02 z"
   id="path25"
   style="stroke-width:0.97113" /><path
   fill="#81b645"
   opacity="1"
   stroke="none"
   d="m 502.24014,171.29933 c 0.0123,-5.16086 0.0868,-9.82657 0.0132,-14.48965 -0.05,-3.19126 1.26667,-4.44327 4.27627,-4.40451 8.32553,0.10717 16.65474,0.11682 24.97943,-0.031 3.15455,-0.056 4.1546,1.45938 4.1347,4.52103 -0.0556,8.49588 -0.10015,16.99396 0.0311,25.48804 0.0556,3.56567 -1.49943,4.64254 -4.594,4.61257 -8.16888,-0.0792 -16.33984,-0.051 -24.50863,0.052 -3.18021,0.0401 -4.61512,-1.23472 -4.40095,-4.75989 0.21173,-3.48453 0.0594,-6.99387 0.0688,-10.98856 z"
   id="path26"
   style="stroke-width:0.97113" /><path
   fill="#1ea5dc"
   opacity="1"
   stroke="none"
   d="m 549.16242,193.82521 c -0.12157,-3.41763 1.2629,-4.5657 4.01126,-4.54489 8.76944,0.0664 17.54049,0.0676 26.30937,-0.0438 3.09816,-0.0393 4.13999,1.49536 4.12443,4.55703 -0.0424,8.30274 -0.0273,16.60681 0.0755,24.90882 0.0405,3.33081 -1.17311,4.82867 -4.44272,4.78442 -8.61224,-0.11648 -17.22796,-0.1084 -25.84028,0.0143 -3.29149,0.0469 -4.43094,-1.47232 -4.37171,-4.81552 0.1441,-8.13476 0.11279,-16.27304 0.13439,-24.86032 z"
   id="path27"
   style="stroke-width:0.97113" /><path
   fill="#f99228"
   opacity="1"
   stroke="none"
   d="m 328.41936,347.61549 c 7.64329,4.9e-4 14.85758,0.13416 22.06374,-0.0645 3.28192,-0.0904 4.53671,1.19623 4.50219,4.61566 -0.0858,8.47626 -0.0632,16.9552 0.0368,25.4314 0.0405,3.41553 -1.2893,4.72632 -4.52423,4.65955 -7.83543,-0.16175 -15.67628,-0.14826 -23.5132,-0.0469 -3.23314,0.0418 -4.49058,-1.36737 -4.41977,-4.77277 0.16923,-8.14166 0.30013,-16.29101 0.14326,-24.43066 -0.0804,-4.17163 1.44031,-5.88019 5.71123,-5.39179 z"
   id="path28"
   style="stroke-width:0.97113" /><path
   id="path29"
   d="m 459.03148,128.1686 c -2.14828,-0.0161 -4.26571,0.0344 -6.37871,0.17382 -1.38399,0.0913 -3.75059,2.1872 -3.79086,3.42969 -0.30207,9.32049 -0.25105,18.66261 0.0255,27.98633 0.0368,1.23715 1.96107,3.44485 3.02271,3.45312 10.32017,0.0804 20.64157,-0.21191 30.96363,-0.39843 -0.0405,-2.60663 -0.35781,-5.25421 -0.17862,-7.82813 -0.17476,2.57089 0.17909,5.19429 0.50465,7.60742 0.57595,-10.57717 0.92876,-20.93323 0.92102,-31.28906 -7.5e-4,-1.03549 -2.11677,-2.82941 -3.3708,-2.95898 -3.38637,-0.34986 -6.83809,0.009 -10.17513,0.46093 1.11172,0.55418 2.19081,0.8558 3.23453,1.17579 -1.06805,-0.32545 -2.23343,-0.64322 -3.6692,-1.26563 -3.86357,-0.30561 -7.52852,-0.52001 -11.10898,-0.54687 z m 16.7233,2.46679 c 0.28897,0.10182 0.57972,0.21002 0.85284,0.33399 -0.27312,-0.12397 -0.56387,-0.23217 -0.85284,-0.33399 z m 1.59524,0.75977 c 0.10752,0.0808 0.20579,0.16667 0.29095,0.25976 0.0849,0.0931 0.15797,0.19346 0.21559,0.30078 -0.0575,-0.10732 -0.13034,-0.20769 -0.21559,-0.30078 -0.0849,-0.0931 -0.18343,-0.17897 -0.29095,-0.25976 z m 5.64196,16.61914 c 0.033,0.47612 0.0538,0.95499 0.0623,1.4375 0.009,0.48251 0.009,0.96781 -0.009,1.45703 -0.0151,0.48922 -0.0424,0.98229 -0.083,1.47851 -0.0406,0.49623 -0.0934,0.99646 -0.16024,1.5 0.067,-0.50354 0.12006,-1.00377 0.16024,-1.5 0.0405,-0.49622 0.0679,-0.98929 0.083,-1.47851 0.0151,-0.48922 0.017,-0.97452 0.009,-1.45703 -0.009,-0.48251 -0.0302,-0.96138 -0.0623,-1.4375 z"
   style="stroke-width:0.97113" /><path
   fill="#1389c4"
   opacity="1"
   stroke="none"
   d="m 525.47135,281.40215 c 8.44757,-0.012 16.45481,0.16146 24.44847,-0.11026 4.22817,-0.14374 5.42552,1.57058 5.25708,5.87332 -0.29273,7.47332 -0.20861,14.97253 -0.0226,22.45361 0.0887,3.55447 -0.9083,5.19119 -4.48168,5.09799 -8.62477,-0.22509 -17.25511,-0.24945 -25.88338,-0.25934 -2.62415,-0.003 -3.56291,-1.17315 -3.53179,-3.93292 0.0943,-8.31674 0.0811,-16.63699 -0.0481,-24.95312 -0.0462,-2.97339 0.96252,-4.40387 4.26202,-4.16928 z"
   id="path30"
   style="stroke-width:0.97113" /><path
   fill="#81b645"
   opacity="1"
   stroke="none"
   d="m 625.28767,316.40962 c 6.72945,0.01 13.00931,0.17536 19.27824,-0.0333 3.54132,-0.11786 5.1839,0.93658 5.08526,5.02936 -0.20041,8.31176 -0.10422,16.63415 9.4e-4,24.95031 0.0396,3.15784 -1.00779,4.47205 -4.1399,4.39606 -7.83965,-0.19031 -15.68892,-0.24347 -23.52734,-0.0443 -3.71654,0.0944 -5.05262,-1.40448 -4.96982,-5.25092 0.15033,-6.98278 0.0132,-13.97229 0.017,-20.95898 0,-8.11676 0.0141,-8.11676 8.25555,-8.08826 z"
   id="path31"
   style="stroke-width:0.97113" /><path
   fill="#81b645"
   opacity="1"
   stroke="none"
   d="m 625.1083,201.34349 c 12.59529,0.18091 11.10143,-1.62012 11.1202,11.483 0.009,5.65097 -0.16617,11.31146 0.0905,16.9498 0.19324,4.24243 -1.45369,5.51685 -5.26246,5.40576 -7.51825,-0.2193 -15.04828,-0.1719 -22.56917,-0.0121 -3.54546,0.0753 -5.11637,-1.1066 -4.99792,-5.15683 0.23313,-7.97025 0.20192,-15.95703 0.0132,-23.92987 -0.0887,-3.74219 1.22895,-4.99857 4.68435,-4.84803 5.47758,0.23859 10.97015,0.0901 16.92107,0.10831 z"
   id="path32"
   style="stroke-width:0.97113" /><path
   fill="#81b645"
   opacity="1"
   stroke="none"
   d="m 418.50308,158.93471 c -6.57628,0.0211 -12.69922,-0.0543 -18.81706,0.10257 -3.43277,0.088 -4.76375,-1.36441 -4.6884,-5.03491 0.1674,-8.15049 0.14392,-16.30838 0.0349,-24.46082 -0.0443,-3.30682 1.29761,-4.33829 4.2692,-4.29013 7.84531,0.12723 15.69552,0.12872 23.54008,-0.027 3.29431,-0.0654 4.52562,1.45603 4.50034,4.75797 -0.0575,7.48822 -0.0198,14.97717 -0.034,22.46585 -0.0113,6.34778 -0.19711,6.54065 -5.99619,6.50012 -0.78474,-0.005 -1.5694,-0.009 -2.80975,-0.0136 z"
   id="path33"
   style="stroke-width:0.97113" /><path
   fill="#2ab3e4"
   opacity="1"
   stroke="none"
   d="m 482.76394,111.96956 c -12.42185,0.0542 -12.41676,0.0542 -12.41704,-12.56979 -1e-4,-5.49 0.0528,-10.981942 -0.0698,-16.469212 -0.0764,-3.4216 1.2263,-4.70438 4.50025,-4.62006 7.68376,0.19782 15.37647,0.19513 23.06183,0.0485 3.22859,-0.0616 4.64738,1.32587 4.64351,4.64658 -0.009,8.151862 -0.0132,16.303742 0.0151,24.455512 0.0123,3.3851 -1.47952,4.70315 -4.67887,4.57592 -4.85712,-0.19317 -9.72574,-0.0614 -15.05545,-0.0675 z"
   id="path34"
   style="stroke-width:0.97113" /><path
   fill="#2ab3e4"
   opacity="1"
   stroke="none"
   d="m 587.43493,342.13399 c -2.95914,0.0834 -5.53284,0.59594 -7.95254,0.15631 -8.47303,-1.53955 -11.70614,-5.81275 -11.69614,-14.82068 0,-4.65723 0.13203,-9.31903 -0.0245,-13.97015 -0.1127,-3.35993 1.04325,-4.93622 4.32332,-4.88764 7.68508,0.11392 15.37261,0.15033 23.05797,0.0775 3.23726,-0.0307 4.49865,1.49993 4.46706,4.83465 -0.0755,7.98297 -0.0613,15.96778 0.009,23.95093 0.0264,3.11694 -1.22046,4.64062 -4.19686,4.59845 -2.50891,-0.0356 -5.01924,0.0315 -7.98508,0.0607 z"
   id="path35"
   style="stroke-width:0.97113" /><path
   fill="#81b645"
   opacity="1"
   stroke="none"
   d="m 386.54656,411.36391 c -4.07718,-0.002 -7.68583,-0.0639 -11.2925,0.003 -2.71064,0.05 -4.04389,-1.08795 -4.02503,-4.1195 0.0528,-8.48267 0.009,-16.9665 -0.0594,-25.44935 -0.0226,-2.9505 1.20121,-4.15698 4.00314,-4.11889 7.52362,0.10235 15.05036,0.11157 22.57379,-8.6e-4 2.91727,-0.0435 3.89422,1.5398 3.99334,4.26038 0.31424,8.62591 0.62621,17.25195 0.9495,25.8775 0.11044,2.94422 -1.51894,3.65735 -3.90808,3.61237 -3.92082,-0.0738 -7.84324,-0.0513 -12.23437,-0.0643 z"
   id="path36"
   style="stroke-width:0.97113" /><path
   fill="#f99228"
   opacity="1"
   stroke="none"
   d="m 470.14866,285.57927 c -4.06954,-1.18893 -5.57151,-3.51993 -5.13854,-7.79279 0.41704,-4.11398 0.11572,-8.31427 0.0632,-12.4757 -0.0368,-2.9347 1.17641,-4.13938 4.00447,-4.10211 8.47708,0.11157 16.95709,0.0937 25.43456,-0.004 2.44204,-0.0282 3.32582,0.93176 3.30271,3.5148 -0.0754,8.48956 0.12619,16.98443 -0.10562,25.46719 -0.0349,1.25961 -1.7186,3.38577 -2.83013,3.53714 -4.95615,0.67477 -9.93558,1.12531 -14.5159,-2.22906 -3.07788,-2.254 -6.58091,-3.85526 -10.21465,-5.91544 z"
   id="path37"
   style="stroke-width:0.97113" /><path
   fill="#b5c038"
   opacity="1"
   stroke="none"
   d="m 389.82504,230.39827 c 1.271,1.35889 2.80372,2.68143 2.85248,4.06277 0.26312,7.45933 0.14419,14.93332 0.18729,22.40207 0.017,3.01618 -1.06956,4.56607 -4.18601,4.49652 -7.51108,-0.16766 -15.02753,-0.19897 -22.53993,-0.10595 -2.97734,0.0368 -4.27636,-1.0987 -4.24052,-4.34354 0.0839,-7.63382 0.0773,-15.27197 -0.082,-22.90396 -0.0613,-2.92334 1.11738,-3.71295 3.63544,-3.6814 7.98234,0.1001 15.96638,0.0539 24.37301,0.0735 z"
   id="path38"
   style="stroke-width:0.97113" /><path
   fill="#81b645"
   opacity="1"
   stroke="none"
   d="m 445.85562,270.63594 c -1.14624,0.92603 -2.58276,2.15857 -3.36685,1.79761 -8.48746,-3.90707 -16.88466,-8.03708 -25.2632,-12.20395 -0.69676,-0.34653 -1.513,-1.38919 -1.53564,-2.13367 -0.12647,-4.16043 -0.32706,-8.37042 0.17862,-12.46902 0.1542,-1.24945 2.43469,-3.08481 3.79577,-3.1398 7.5322,-0.30445 15.08222,-0.0639 22.62395,-0.17749 3.071,-0.0463 3.63685,1.63028 3.60516,4.3981 -0.0896,7.83056 -0.0274,15.66312 -0.0377,23.92822 z"
   id="path41"
   style="stroke-width:0.97113" /><path
   fill="#fb9d25"
   opacity="1"
   stroke="none"
   d="m 543.95919,248.48799 c -0.35838,-3.70822 0.48229,-5.3707 4.06284,-5.21792 6.74265,0.28766 13.50802,0.24597 20.25519,0.0311 3.43644,-0.10943 4.34559,1.43408 4.26372,4.75687 -0.14344,5.82413 -0.13825,11.66052 0.0538,17.48251 0.10402,3.15592 -1.12624,4.06082 -3.90214,4.0072 -6.75132,-0.1304 -13.50887,-0.16686 -20.25877,-0.002 -3.54311,0.0866 -4.7083,-1.46702 -4.55514,-5.09449 0.21766,-5.15255 0.0726,-10.32229 0.0802,-15.9635 z"
   id="path42"
   style="stroke-width:0.97113" /><path
   fill="#f27926"
   opacity="1"
   stroke="none"
   d="m 139.25496,288.04277 c 2.80548,2.35852 5.49323,4.90234 8.45373,7.01688 2.36344,1.68808 4.80264,2.92593 7.16622,-0.71823 1.99005,-3.06839 4.54076,-1.10868 6.42355,0.56591 5.15538,4.58515 1.95311,9.68921 0.40814,14.53171 -1.38648,4.3457 -4.36583,7.29663 -8.82661,6.50366 -7.32982,-1.30304 -14.54965,-3.30029 -20.23489,-8.95916 -2.04837,-2.03885 -4.07434,-4.10297 -6.0363,-6.6702 2.12175,-2.44318 4.1641,-4.37793 6.21828,-6.29849 2.1367,-1.9978 4.28477,-3.98197 6.42788,-5.97208 z"
   id="path43"
   style="stroke-width:0.97113" /><path
   fill="#f79122"
   opacity="1"
   stroke="none"
   d="m 367.42346,345.53041 c 0.0151,-4.56341 0.0151,-8.69092 0.0151,-13.80041 6.63438,0 12.83295,-0.14942 19.01153,0.15606 0.96234,0.0476 2.38094,2.04346 2.65321,3.35645 1.26987,6.12561 2.383,12.30481 3.12069,18.52246 0.14137,1.1911 -1.61137,3.75104 -2.56625,3.79443 -7.16307,0.32489 -14.34529,0.17682 -22.25011,0.17682 0,-4.24872 0,-8.00927 0.0151,-12.20581 z"
   id="path44"
   style="stroke-width:0.97113" /><path
   fill="#ededed"
   opacity="1"
   stroke="none"
   d="m 103.27953,408.31899 c 4.92815,-0.1308 7.02968,2.2069 6.9446,6.95813 -0.0712,3.97589 -0.0332,7.95446 -0.0103,11.93164 0.0204,3.52142 -1.63856,5.13763 -4.91503,5.1062 -4.06324,-0.039 -8.12984,0.087 -12.18981,-0.0414 -3.53347,-0.11169 -5.43111,-2.23724 -5.50326,-5.9729 -0.0832,-4.30694 -0.008,-8.61718 -0.0225,-12.9259 -0.0116,-3.53174 1.68688,-5.10992 4.95227,-5.06586 3.43786,0.0465 6.87672,0.0102 10.74401,0.0101 z"
   id="path45"
   style="stroke-width:0.97113" /><path
   fill="#ededed"
   opacity="1"
   stroke="none"
   d="m 161.13574,159.75038 c -0.75421,4.0889 -2.90392,5.68045 -6.39745,5.57395 -3.44923,-0.1052 -6.90409,0.018 -10.35544,-0.0359 -3.78212,-0.059 -5.78559,-2.16138 -5.85023,-6.16513 -0.0671,-4.1583 0.0333,-8.31949 -0.0267,-12.47803 -0.055,-3.80341 1.6949,-5.42658 5.20445,-5.35055 3.92116,0.0849 7.85468,0.19937 11.76549,-0.0307 4.23354,-0.24896 5.57824,2.21201 5.64705,6.0658 0.0713,3.99173 0.0185,7.98596 0.0128,12.4205 z"
   id="path46"
   style="stroke-width:0.97113" /><path
   fill="#ededed"
   opacity="1"
   stroke="none"
   d="m 110.21032,155.18251 c -0.006,9.27616 -0.80664,10.00202 -9.17239,10.14374 -13.56757,0.2298 -13.7673,0.16766 -13.45782,-14.11771 0.036,-1.66195 0.002,-3.3255 0.01,-4.98828 0.0148,-3.26404 1.57155,-4.89746 4.64415,-4.90268 4.07728,-0.007 8.16494,0.18686 12.22896,-0.0602 4.18906,-0.25467 5.62565,2.07874 5.73198,5.97284 0.068,2.49213 0.0145,4.98804 0.0156,7.95227 z"
   id="path47"
   style="stroke-width:0.97113" /><path
   fill="#ededed"
   opacity="1"
   stroke="none"
   d="m 138.51577,425.99043 c 9.5e-4,-4.12561 -0.0369,-7.79022 0.0134,-11.45349 0.0551,-4.01629 2.03369,-6.1355 5.82082,-6.20318 3.61158,-0.0645 7.22511,-0.0353 10.83758,-0.0102 3.78903,0.0263 5.83648,2.08393 5.9292,6.09186 0.0924,3.99469 0.1071,7.99646 -0.004,11.99011 -0.10461,3.76831 -2.08783,5.79731 -5.63758,5.88001 -3.76785,0.0878 -7.54325,-0.0991 -11.30744,0.0533 -3.96929,0.16059 -5.93294,-1.58648 -5.65218,-6.34845 z"
   id="path48"
   style="stroke-width:0.97113" /><path
   fill="#ededed"
   opacity="1"
   stroke="none"
   d="m 262.05427,415.65688 c -8.8e-4,3.77319 0.0303,7.09082 -0.0107,10.40753 -0.0495,3.99554 -2.00626,6.13489 -5.76683,6.22107 -3.75243,0.0861 -7.51018,0.10516 -11.26149,-0.004 -3.5355,-0.10327 -5.6049,-2.19024 -5.52705,-5.92187 0.0996,-4.77295 0.28766,-9.59754 1.10584,-14.26831 0.25771,-1.47119 2.56668,-3.39496 4.10805,-3.58991 4.00987,-0.50714 8.12709,-0.37915 12.17807,-0.1095 3.81264,0.25385 5.34205,2.91895 5.1742,7.26539 z"
   id="path49"
   style="stroke-width:0.97113" /><path
   fill="#ededed"
   opacity="1"
   stroke="none"
   d="m 205.16908,165.30141 c -3.87982,-5.8e-4 -7.32478,-0.0392 -10.76859,0.009 -3.26514,0.0461 -4.98169,-1.50812 -4.96896,-5.05884 0.0167,-4.64829 0.007,-9.29669 -1.2e-4,-13.94507 -0.005,-3.23123 1.45827,-4.96689 4.55153,-4.98398 4.22714,-0.0233 8.45475,-0.0354 12.68165,0.005 3.11956,0.0295 4.48398,1.86246 4.46884,5.06708 -0.0204,4.31622 -0.11256,8.63665 0.0286,12.94784 0.13763,4.20499 -1.52985,6.25238 -5.99287,5.95905 z"
   id="path50"
   style="stroke-width:0.97113" /><path
   fill="#ededed"
   opacity="1"
   stroke="none"
   d="m 148.01984,193.30183 c 14.26155,-0.0253 13.15533,-1.27722 13.12352,13.31171 -0.003,1.49356 -0.0263,2.98764 5.8e-4,4.48062 0.0626,3.47882 -1.48423,5.24317 -4.81082,5.22522 -4.22561,-0.0228 -8.45243,-0.0655 -12.67687,0.0128 -3.52105,0.0653 -5.21606,-1.61786 -5.14845,-5.38602 0.0624,-3.48373 0.004,-6.96976 0.0124,-10.45474 0.0167,-6.46353 0.66142,-7.15079 6.70161,-7.18881 0.78252,-0.005 1.56508,-6.7e-4 2.79808,-7.7e-4 z"
   id="path51"
   style="stroke-width:0.97113" /><path
   fill="#ededed"
   opacity="1"
   stroke="none"
   d="m 211.13101,425.98683 c 0.27964,4.72827 -1.64174,6.5127 -5.61236,6.35419 -3.75212,-0.14984 -7.51378,-0.0533 -11.27101,-0.0287 -3.01745,0.0198 -4.76569,-1.41125 -4.79447,-4.72155 -0.0418,-4.81366 -0.38541,-9.67866 0.18336,-14.41596 0.21223,-1.7677 2.4738,-4.38373 4.06701,-4.62323 4.29718,-0.646 8.79326,-0.64337 13.09232,-0.005 1.61052,0.23926 3.85811,2.78028 4.1326,4.56311 0.62249,4.04273 0.20017,8.26636 0.20255,12.87677 z"
   id="path52"
   style="stroke-width:0.97113" /><path
   fill="#ededed"
   opacity="1"
   stroke="none"
   d="m 262.05039,97.57176 c -6.6e-4,3.4484 -0.0419,6.43332 0.008,9.41648 0.0581,3.43408 -1.35427,5.32247 -4.71139,5.32055 -4.37784,-0.002 -8.7557,-0.0123 -13.13347,0.005 -3.01809,0.0117 -4.73729,-1.44965 -4.76546,-4.74695 -0.0383,-4.47583 -0.40769,-9.01214 0.18129,-13.39929 0.23905,-1.78052 2.47291,-4.380652 4.06498,-4.620062 4.29152,-0.64535 8.7385,-0.44009 13.10039,-0.16119 4.44783,0.28445 5.50541,3.609412 5.2551,8.185882 z"
   id="path53"
   style="stroke-width:0.97113" /><path
   fill="#ededed"
   opacity="1"
   stroke="none"
   d="m 155.06078,89.310748 c 4.18632,0.25338 6.07475,2.374482 6.07533,6.375822 5.5e-4,3.81616 -0.0267,7.63254 0.007,11.44839 0.0307,3.49286 -1.5357,5.20926 -4.84878,5.18744 -4.38121,-0.0289 -8.7627,-6e-5 -13.14408,-0.007 -3.06717,-0.005 -4.62164,-1.64383 -4.62814,-4.89853 -0.008,-4.3139 0.0235,-8.62802 -0.01,-12.94165 -0.0271,-3.49912 1.54631,-5.201752 4.85847,-5.171392 3.75516,0.0345 7.51087,0.007 11.69015,0.007 z"
   id="path54"
   style="stroke-width:0.97113" /><path
   fill="#ededed"
   opacity="1"
   stroke="none"
   d="m 292.23227,416.49623 c 0.0502,-7.72577 0.46355,-8.06763 7.1921,-8.19787 16.35145,-0.31635 14.56291,1.07543 14.50852,15.18719 -0.0334,8.66565 -0.14348,8.8349 -8.04153,8.81665 -15.21345,-0.0351 -13.62397,1.68347 -13.65879,-14.33704 -7.2e-4,-0.33294 -9e-5,-0.66595 -3e-4,-1.46893 z"
   id="path55"
   style="stroke-width:0.97113" /><path
   fill="#ededed"
   opacity="1"
   stroke="none"
   d="m 101.95589,456.22968 c 4.92815,-0.1308 7.02968,2.2069 6.9446,6.95813 -0.0712,3.97589 -0.0332,7.95446 -0.0103,11.93164 0.0204,3.52142 -1.63856,5.13763 -4.91503,5.1062 -4.06324,-0.039 -8.12984,0.087 -12.18981,-0.0414 -3.53347,-0.11169 -5.43111,-2.23724 -5.50326,-5.9729 -0.0832,-4.30694 -0.008,-8.61718 -0.0225,-12.9259 -0.0116,-3.53174 1.68688,-5.10992 4.95227,-5.06586 3.43786,0.0465 6.87672,0.0102 10.74401,0.0101 z"
   id="path45-1"
   style="stroke-width:0.97113" /><path
   fill="#ededed"
   opacity="1"
   stroke="none"
   d="m 137.19213,473.90112 c 9.5e-4,-4.12561 -0.0369,-7.79022 0.0134,-11.45349 0.0551,-4.01629 2.03369,-6.1355 5.82082,-6.20318 3.61158,-0.0645 7.22511,-0.0353 10.83758,-0.0102 3.78903,0.0263 5.83648,2.08393 5.9292,6.09186 0.0924,3.99469 0.1071,7.99646 -0.004,11.99011 -0.10461,3.76831 -2.08783,5.79731 -5.63758,5.88001 -3.76785,0.0878 -7.54325,-0.0991 -11.30744,0.0533 -3.96929,0.16059 -5.93294,-1.58648 -5.65218,-6.34845 z"
   id="path48-8"
   style="stroke-width:0.97113" /><path
   fill="#ededed"
   opacity="1"
   stroke="none"
   d="m 260.73063,463.56757 c -8.8e-4,3.77319 0.0303,7.09082 -0.0107,10.40753 -0.0495,3.99554 -2.00626,6.13489 -5.76683,6.22107 -3.75243,0.0861 -7.51018,0.10516 -11.26149,-0.004 -3.5355,-0.10327 -5.6049,-2.19024 -5.52705,-5.92187 0.0996,-4.77295 0.28766,-9.59754 1.10584,-14.26831 0.25771,-1.47119 2.56668,-3.39496 4.10805,-3.58991 4.00987,-0.50714 8.12709,-0.37915 12.17807,-0.1095 3.81264,0.25385 5.34205,2.91895 5.1742,7.26539 z"
   id="path49-8"
   style="stroke-width:0.97113" /><path
   fill="#ededed"
   opacity="1"
   stroke="none"
   d="m 209.80737,473.89752 c 0.27964,4.72827 -1.64174,6.5127 -5.61236,6.35419 -3.75212,-0.14984 -7.51378,-0.0533 -11.27101,-0.0287 -3.01745,0.0198 -4.76569,-1.41125 -4.79447,-4.72155 -0.0418,-4.81366 -0.38541,-9.67866 0.18336,-14.41596 0.21223,-1.7677 2.4738,-4.38373 4.06701,-4.62323 4.29718,-0.646 8.79326,-0.64337 13.09232,-0.005 1.61052,0.23926 3.85811,2.78028 4.1326,4.56311 0.62249,4.04273 0.20017,8.26636 0.20255,12.87677 z"
   id="path52-3"
   style="stroke-width:0.97113" /><path
   fill="#ededed"
   opacity="1"
   stroke="none"
   d="m 290.90863,464.40692 c 0.0502,-7.72577 0.46355,-8.06763 7.1921,-8.19787 16.35145,-0.31635 14.56291,1.07543 14.50852,15.18719 -0.0334,8.66565 -0.14348,8.8349 -8.04153,8.81665 -15.21345,-0.0351 -13.62397,1.68347 -13.65879,-14.33704 -7.2e-4,-0.33294 -9e-5,-0.66595 -3e-4,-1.46893 z"
   id="path55-5"
   style="stroke-width:0.97113" /><path
   fill="#ededed"
   opacity="1"
   stroke="none"
   d="m 239.43101,367.4341 c 0.009,-9.27057 0.81436,-9.98371 9.1801,-10.14636 14.84238,-0.28852 13.58132,1.4812 13.45574,14.30548 -0.0841,8.59149 -0.13242,8.71557 -8.12454,8.71893 -2.82306,0.001 -5.65605,-0.15656 -8.46694,0.0403 -4.47319,0.3133 -6.40954,-1.74585 -6.0673,-6.46301 0.14393,-1.98383 0.0233,-3.98926 0.0229,-6.45532 z"
   id="path56"
   style="stroke-width:0.97113" /><path
   fill="#ededed"
   opacity="1"
   stroke="none"
   d="m 109.28322,197.63979 c 0.002,4.95297 -0.10519,9.44186 0.037,13.92184 0.10606,3.34158 -1.01804,4.92892 -4.34059,4.79215 -4.06709,-0.16739 -8.14601,-0.10425 -12.21771,-0.0229 -3.50603,0.0701 -5.24336,-1.56235 -5.18816,-5.35416 0.0605,-4.15185 0.0419,-8.30575 0.002,-12.45819 -0.0334,-3.48825 1.49871,-5.23807 4.82766,-5.21695 4.38633,0.0279 8.80221,-0.29044 13.14209,0.18689 1.35055,0.14853 2.49573,2.39649 3.7376,4.15128 z"
   id="path57"
   style="stroke-width:0.97113" /><path
   fill="#ededed"
   opacity="1"
   stroke="none"
   d="m 210.85325,92.06178 c 0.19298,5.2291 0.19378,10.04657 0.28649,14.86206 0.0725,3.76786 -1.60515,5.47284 -5.13581,5.41031 -4.22997,-0.0749 -8.46329,-0.0852 -12.69274,0.005 -2.81915,0.0599 -3.95383,-1.2987 -3.90027,-4.22211 0.0853,-4.65091 -0.21339,-9.32644 0.15806,-13.94564 0.13078,-1.62644 1.67025,-4.382482 2.70892,-4.459392 5.43476,-0.40225 10.9177,-0.18023 16.37689,0.0293 0.70278,0.027 1.36497,1.243102 2.19846,2.320892 z"
   id="path58"
   style="stroke-width:0.97113" /><path
   fill="#ededed"
   opacity="1"
   stroke="none"
   d="m 206.87141,357.33015 c 1.69929,1.98597 3.75672,3.82697 4.08631,5.96723 0.59879,3.88861 0.15479,7.9552 0.17534,11.94739 0.0166,3.21972 -1.37121,5.03228 -4.49354,5.05737 -4.23548,0.034 -8.52908,0.43207 -12.67871,-0.20209 -1.66754,-0.25482 -4.05328,-2.66003 -4.30992,-4.38757 -0.62693,-4.21997 -0.31126,-8.61963 -0.16808,-12.93927 0.12358,-3.72809 1.80575,-5.75592 5.67534,-5.50897 3.75157,0.23932 7.52728,0.0544 11.71326,0.0659 z"
   id="path59"
   style="stroke-width:0.97113" /><path
   fill="#1999d1"
   opacity="1"
   stroke="none"
   d="m 108.43566,316.35518 c -6.60661,4.51984 -13.94272,6.42511 -21.70139,6.94305 -3.843669,0.25672 -6.241116,-1.61987 -6.343291,-5.52899 -0.09975,-3.81592 -2.571287,-8.50351 3.614858,-10.59427 5.745133,-1.94174 11.093663,-5.20282 17.303973,-7.89212 2.16908,2.43747 4.05429,4.7179 5.02695,7.37403 1.12037,3.05954 1.43457,6.45098 2.0989,9.6983 z"
   id="path60"
   style="stroke-width:0.97113" /><path
   fill="#f9f9fa"
   opacity="1"
   stroke="none"
   d="m 208.65085,193.68746 c 0.69238,6.71182 1.17115,13.22653 1.12625,19.73718 -0.007,0.96692 -2.42499,2.61029 -3.82625,2.73968 -4.04309,0.37342 -8.20339,0.58164 -12.17801,-0.0836 -1.62773,-0.27239 -3.91993,-2.81369 -4.13228,-4.56515 -0.57464,-4.73962 -0.47368,-9.63864 -0.0219,-14.40857 0.13064,-1.37915 2.28759,-3.51608 3.63036,-3.61877 4.98025,-0.38089 10.00843,-0.0579 15.4018,0.19919 z"
   id="path61"
   style="stroke-width:0.97113" /><path
   fill="#f68827"
   opacity="1"
   stroke="none"
   d="m 118.41167,260.05361 c 2.53609,2.54 5.07218,5.08001 7.48339,8.11419 -1.22446,4.68991 -2.32406,8.88556 -3.57636,13.36328 -1.61359,1.42911 -3.07451,2.57611 -4.84997,3.79392 -1.30327,0.48733 -2.292,0.9039 -3.28071,1.32046 -1.23929,-1.69452 -2.4343,-3.42807 -3.72668,-5.0758 -3.14454,-4.00925 -3.78146,-8.58081 -2.6456,-14.24134 2.39596,-5.13553 6.03453,-7.02694 10.59593,-7.27471 z"
   id="path63"
   style="stroke-width:0.97113" /><path
   fill="#1692ca"
   opacity="1"
   stroke="none"
   d="m 108.73633,316.22536 c -0.965,-3.1175 -1.2792,-6.50894 -2.39957,-9.56848 -0.97266,-2.65613 -2.85787,-4.93656 -4.71527,-7.44001 2.67518,-3.04879 5.7259,-6.04068 9.23467,-8.8432 5.08781,2.77054 9.71756,5.35166 14.405,8.2468 0.10329,0.73718 0.14888,1.1604 0.19447,1.58359 -5.47286,5.29715 -10.94573,10.5943 -16.7193,16.0213 z"
   id="path64"
   style="stroke-width:0.97113" /><path
   fill="#414250"
   opacity="1"
   stroke="none"
   d="m 125.64248,300.20305 c -0.23244,-0.42218 -0.27803,-0.8454 -0.37995,-1.92539 -2.53061,-4.77902 -5.00494,-8.90121 -7.47926,-13.02343 1.46092,-1.14704 2.92184,-2.29404 4.8455,-3.8274 3.38204,-3.7532 6.83797,-5.81268 11.58236,-5.14737 1.77618,3.80942 3.28154,7.37333 4.7869,10.93723 0,0 0.18144,0.39594 0.2192,0.61102 -2.10538,2.20517 -4.25345,4.18934 -6.39015,6.18714 -2.05418,1.92056 -4.09653,3.85531 -6.38528,6.00818 -0.24121,0.22436 -0.61245,0.17901 -0.79932,0.18002 z"
   id="path65"
   style="stroke-width:0.97113" /><path
   fill="#1999d1"
   opacity="1"
   stroke="none"
   d="m 133.6487,268.93376 c 1.16568,-3.0264 2.33136,-6.05276 4.07163,-9.30755 2.79299,0.43579 5.29428,0.62457 7.16362,1.8753 2.82342,1.88901 5.20608,4.51871 7.77603,6.83362 -3.16031,4.93066 -6.32063,9.86133 -10.1143,14.88791 -1.75912,-1.49533 -3.03233,-2.99448 -3.97858,-4.69785 -1.74093,-3.13376 -3.28961,-6.3876 -4.9184,-9.59143 z"
   id="path66"
   style="stroke-width:0.97113" /><path
   fill="#fb9d25"
   opacity="1"
   stroke="none"
   d="m 363.66703,197.40016 c -12.31589,0.88422 -12.3194,0.88416 -12.16733,-11.86233 0.0137,-1.15036 0.11173,-2.29959 0.2196,-4.40549 3.69981,0.22205 7.38287,0.0973 10.94041,0.74585 4.25335,0.77542 3.91742,5.11236 4.40877,8.285 0.42326,2.73316 0.89424,6.1886 -3.40145,7.23697 z"
   id="path68"
   style="stroke-width:0.97113" /><path
   fill="#414250"
   opacity="1"
   stroke="none"
   d="m 250.15673,321.97963 c -0.50432,6.80145 -1.34456,8.04724 -5.98278,7.09735 -1.70935,-0.35003 -4.04192,-2.68091 -4.31581,-4.42212 -0.63481,-4.03619 -0.44239,-8.29205 -0.0357,-12.39764 0.13515,-1.36493 1.93741,-3.58704 2.99226,-3.59662 2.44287,-0.0223 6.15474,-1.6452 6.77808,2.95953 0.44245,3.26856 0.40141,6.61066 0.56399,10.3595 z"
   id="path69"
   style="stroke-width:0.97113" /><path
   fill="#1ea5dc"
   opacity="1"
   stroke="none"
   d="m 152.94941,268.15816 c -2.85938,-2.13794 -5.24204,-4.76764 -8.06546,-6.65665 -1.86934,-1.25073 -4.37063,-1.43951 -6.94949,-2.14419 0.30531,-3.78846 1.62152,-7.80219 5.59141,-7.65848 3.18504,0.11532 7.05328,1.67322 9.26182,4.02383 3.13836,3.34021 3.12106,8.04129 0.16172,12.43549 z"
   id="path72"
   style="stroke-width:0.97113" /><path
   fill="#70cdf0"
   opacity="1"
   stroke="none"
   d="m 118.2718,259.76216 c -4.42153,0.53922 -8.0601,2.43063 -10.44368,7.10407 -1.59179,-0.78427 -3.01163,-1.80899 -4.69575,-3.02442 -0.64873,-6.54413 1.77492,-11.48001 6.29125,-12.19311 4.11458,-0.64966 6.88964,1.84292 8.84818,8.11346 z"
   id="path75"
   style="stroke-width:0.97113" /><path
   fill="#fb9d25"
   opacity="1"
   stroke="none"
   d="m 311.53732,260.69493 c 2.26824,-0.0269 4.15051,-0.17416 5.99446,0.0435 3.43845,0.40573 4.65439,2.66489 3.06136,5.84793 -2.23484,4.46545 -6.32628,2.80127 -9.60088,2.427 -1.08145,-0.12366 -2.23351,-3.29321 -2.57037,-5.22366 -0.14163,-0.81168 1.74663,-2.02161 3.11543,-3.09476 z"
   id="path79"
   style="stroke-width:0.97113" /><path
   fill="#0f6292"
   opacity="1"
   stroke="none"
   d="m 117.46875,285.32503 c 2.78884,4.05142 5.26317,8.17361 7.73611,12.63861 -4.63114,-2.23831 -9.26089,-4.81943 -14.05456,-7.73136 0.78647,-1.26184 1.73687,-2.19287 2.8625,-3.35537 1.16393,-0.64801 2.15266,-1.06458 3.45595,-1.55188 z"
   id="path80"
   style="stroke-width:0.97113" /><path
   fill="#f27926"
   opacity="1"
   stroke="none"
   d="m 133.9403,276.03395 c -4.47356,-0.4198 -7.92949,1.63968 -11.15882,5.11084 0.78952,-4.09143 1.88912,-8.28708 3.27118,-12.68683 1.64244,0.69599 3.00248,1.59607 4.72957,2.95185 1.29741,1.84518 2.22776,3.23465 3.15807,4.62414 z"
   id="path81"
   style="stroke-width:0.97113" /><path
   fill="#1389c4"
   opacity="1"
   stroke="none"
   d="m 134.21113,276.27946 c -1.20114,-1.635 -2.13149,-3.02447 -3.14328,-4.73251 0.64334,-0.96503 1.36819,-1.61151 2.33695,-2.43561 1.87269,3.02625 3.42137,6.28009 5.1623,9.41385 0.94625,1.70337 2.21946,3.20252 3.70994,4.85788 -0.71671,1.14334 -1.79809,2.22254 -3.07921,3.56769 -1.70516,-3.29797 -3.21052,-6.86188 -4.9867,-10.6713 z"
   id="path83"
   style="stroke-width:0.97113" /><path
   fill="#fb9d25"
   opacity="1"
   stroke="none"
   d="m 414.36262,437.09004 c 0.17268,1.98328 0.17268,3.64911 0.17268,5.31488 -0.45806,0.16724 -0.91621,0.33448 -1.37437,0.50165 -1.73642,-2.02252 -3.47284,-4.04504 -5.40213,-6.29211 2.73554,-2.30829 4.66218,-2.32447 6.60382,0.47558 z"
   id="path86"
   style="stroke-width:0.97113" /><path
   fill="#b5c038"
   opacity="1"
   stroke="none"
   d="m 291.90265,260.49782 c 0.17859,-1.84448 0.42006,-3.35748 0.66153,-4.87045 0.44622,-0.13971 0.89244,-0.27942 1.33866,-0.4191 0.93239,1.47122 2.07003,2.85629 2.67118,4.46655 0.17876,0.47885 -1.04247,2.08884 -1.81576,2.27451 -0.8096,0.19442 -1.85202,-0.70096 -2.85561,-1.45151 z"
   id="path89"
   style="stroke-width:0.97113" /><path
   fill="#f9f9fa"
   opacity="1"
   stroke="none"
   d="m 155.73068,366.72816 c -8.58808,4.9289 -16.3395,-0.25482 -17.95023,-10.51074 -0.93293,-5.94018 6.42906,-13.49005 12.04358,-12.29663 5.12973,1.09021 9.52893,3.45624 10.92397,9.51917 1.26869,5.51367 -0.7675,9.68451 -5.01732,13.2882 z"
   id="path133"
   style="stroke-width:0.97113" /><path
   fill="#f9f9fa"
   opacity="1"
   stroke="none"
   d="m 343.44963,141.83379 c 1.36173,-8.10749 6.64372,-11.38898 13.79588,-8.97443 6.9653,2.35147 10.30631,9.14709 8.03609,16.34546 -2.05141,6.50412 -8.45143,9.50162 -15.36709,7.19745 -5.11817,-1.70532 -7.87342,-7.70313 -6.46488,-14.56848 z"
   id="path134"
   style="stroke-width:0.97113" /><path
   fill="#f9f9fa"
   opacity="1"
   stroke="none"
   d="m 251.90915,226.78493 c -3.49637,0.57754 -6.83858,1.73584 -9.83888,1.09485 -6.20632,-1.32593 -9.67902,-7.90601 -8.3473,-14.32996 1.36574,-6.5881 6.16439,-9.71619 13.06208,-8.3096 2.45308,0.50027 5.51416,0.6908 7.09856,2.32767 3.70764,3.83047 2.36717,15.25454 -1.97446,19.21704 z"
   id="path135"
   style="stroke-width:0.97113" /><path
   fill="#26364e"
   opacity="1"
   stroke="none"
   d="m 321.38537,219.17647 c -0.0614,-0.48364 0.19352,-1.06 0.71882,-1.77243 0.0461,0.46917 -0.1782,1.07443 -0.71882,1.77243 z"
   id="path137"
   style="stroke-width:0.97113" /><path
   id="path4"
   style="stroke-width:1.09597"
   d="m 56.323295,39.445404 c -2.263568,-0.0195 -5.299461,3.227636 -6.712955,5.819299 -8.837031,16.203191 -17.293092,32.63671 -25.924446,48.964652 -3.082616,5.831335 -0.662891,10.443935 5.683768,10.521265 5.073894,0.0617 10.149059,0.0131 15.446658,0.0131 0,3.76626 5.88e-4,6.74658 0,9.72664 -0.0078,38.94985 -0.01998,77.89927 -0.02213,116.84914 -0.004,91.38253 -0.0027,182.76554 -0.0023,274.14804 4.2e-5,8.55299 1.595224,10.77447 8.614184,12.05128 1.009784,-0.24664 2.020264,-0.49227 3.685153,-0.23489 3.849566,0.38202 7.044273,0.25855 10.238752,0.1361 2.035951,-0.24058 4.072353,-0.48043 6.828046,-0.19755 16.006096,0.41249 31.292695,0.30191 46.579015,0.19097 0.70274,-0.2564 1.40441,-0.60371 2.10706,-0.89122 -0.64175,0.30164 -1.22812,0.7042 -1.68875,1.03392 9.83623,0.17701 19.25319,0.26711 28.66894,0.23048 15.26568,-0.0594 30.53125,-0.20195 45.6118,-0.67391 -0.41135,-0.29914 -0.77698,-0.55724 -1.11993,-0.74416 0.41277,0.20882 0.90382,0.51139 1.57365,0.91537 8.51675,0.40089 16.3947,0.26583 24.27333,0.13172 2.62299,-0.11285 5.26167,-0.21276 7.94355,-0.27878 -2.58019,0.0994 -5.09356,0.245 -7.52081,0.41928 5.57113,0.0381 10.80799,-0.0364 15.80301,-0.38635 0.76369,0.0196 1.46268,-0.0118 2.24428,0.0219 1.77672,0.43437 2.87432,0.32816 3.97067,0.22171 0.88454,-0.0985 1.78838,-0.18191 2.73122,-0.23706 -0.83028,0.0884 -1.59461,0.21807 -2.27306,0.37536 2.09195,0.0537 3.82213,-0.001 5.3407,-0.32269 0.36309,0.0233 0.65279,-0.008 1.04247,0.0351 13.91291,0.41269 27.10829,0.29318 40.30429,0.17342 0.78071,-0.26169 1.56105,-0.61552 2.34167,-0.90879 -0.71079,0.30764 -1.35752,0.71892 -1.86139,1.05586 4.91334,0.16721 9.34634,0.1888 13.78005,0.20634 27.80315,0.11001 55.60485,0.21478 83.26897,-0.0901 0.23097,0.16794 0.44368,0.25873 0.6817,0.45001 0.0913,2.0812 0.008,3.28522 -0.0752,4.48904 0.0788,3.1654 0.18616,6.33031 0.23239,9.49617 0.10834,7.40511 4.20778,10.16724 10.35163,6.79392 10.20236,-5.60163 20.34472,-11.32285 31.21204,-17.24278 6.17978,-2.91903 11.6721,-5.56328 17.1354,-8.27126 3.06447,-1.51889 7.12641,-3.10486 5.99142,-7.31637 -0.76734,-2.84702 -3.63011,-5.77396 -6.27029,-7.24395 -16.32861,-9.09133 -32.87639,-17.74718 -49.31466,-26.62258 -5.06742,-2.73596 -8.87109,-0.7049 -9.10775,5.31223 -0.21086,5.36463 -0.0443,10.74705 -0.0443,16.31203 H 67.670912 c 0,-4.15543 -0.0042,-7.88882 0.0023,-11.62104 0.05666,-35.56943 0.114606,-71.1382 0.172638,-106.70763 -0.118618,-14.34285 -0.237924,-28.68616 -0.287729,-44.0717 0.06882,-76.22343 0.06862,-151.40478 0.06862,-226.72217 5.230249,0 9.703934,0.31124 14.114248,-0.11414 2.742088,-0.26451 6.92849,-0.91228 7.695662,-2.70221 1.01363,-2.364993 0.01581,-6.41574 -1.334623,-9.05054 C 79.926112,76.935933 71.516566,61.112078 62.885746,45.427142 61.451935,42.821374 58.562912,39.464735 56.323295,39.445404 Z" /></svg>
